<svg id="Слой_1" data-name="Слой 1" xmlns="http://www.w3.org/2000/svg" viewBox="0 0 1116.03 628.47"><defs><style>.cls-1{fill:none;stroke:#1c2541;stroke-miterlimit:10;}</style></defs><title>bg_wave</title><path class="cls-1" d="M1404,723.88c-59.9-34-124.65-59.07-194.72-71.39a567.22,567.22,0,0,0-121.55-8c-35,1.47-75.13,3-108.39,15-35.78,12.84-70.51,35.57-103.55,54.2q-49.87,28.26-98.39,58.94L770.47,777" transform="translate(-288.22 -149)"/><path class="cls-1" d="M815.72,777q29.82-17.9,60.18-34.91c33.46-18.63,68.4-41.16,104.49-54,33.05-11.68,74.62-11.89,109.45-12.63a586.12,586.12,0,0,1,122.81,10.21c68.67,13.11,132.31,38,191.35,71.42" transform="translate(-288.22 -149)"/><path class="cls-1" d="M1404,757.06c-59-33.39-122.68-58.31-191.35-71.42a586.12,586.12,0,0,0-122.81-10.21c-34.83.74-76.4,1-109.45,12.63-36.09,12.84-71,35.37-104.49,54q-30.4,17-60.18,34.91" transform="translate(-288.22 -149)"/><path class="cls-1" d="M864.48,777q5.64-3.16,11.31-6.29c33.68-18.52,69.14-41.36,105.66-53.67,33-11.16,76.08-10.21,110.6-10.32a613.35,613.35,0,0,1,113.54,10.21c61.82,11.48,119.72,32.27,174,60.07H1404" transform="translate(-288.22 -149)"/><path class="cls-1" d="M1404,593c-59.92-33.83-125.07-57.41-196-66.26-72.4-9.06-152.9-3.69-222,21C945,562.5,905.47,589.13,868.1,611.23c-31.88,18.84-63.34,38.52-94.39,58.73-53,34.43-104.81,70.47-156.32,107" transform="translate(-288.22 -149)"/><path class="cls-1" d="M652.88,777c39.45-27.49,79.2-54.56,119.56-80.7q47.05-30.46,95.25-58.94c37.68-22.1,77.55-48.94,118.92-63.25,69.24-24,152.06-26.52,224-16.1,69.83,10.08,134.11,34,193.35,67.61" transform="translate(-288.22 -149)"/><path class="cls-1" d="M1404,528.09c-58.3-32.23-121.71-54.15-190.72-61.37-74.92-7.78-157.74,1.69-227.84,30.42-76.08,31.15-148.49,82-216.89,127.14C694.45,673.12,622.48,725,550.61,777" transform="translate(-288.22 -149)"/><path class="cls-1" d="M583.48,777c63.16-45.34,126.6-90.27,191.71-132.8,66.08-43.15,136.49-93.25,210.36-122,70.83-27.57,155-34.42,229.83-25.05,68.16,8.59,130.87,31.11,188.62,63.44" transform="translate(-288.22 -149)"/><path class="cls-1" d="M1404,658.27c-58.49-33.28-121.83-57.4-190.51-68.61-72.61-11.9-160.9-12.21-231,13.05-40,14.41-78.61,40-115.24,61.36-32.52,18.84-64.51,38.62-96.18,59q-41,26.37-81.22,53.86" transform="translate(-288.22 -149)"/><path class="cls-1" d="M728.9,777q24.69-16.29,49.65-32.18c32-20.31,64.51-40.1,97.45-58.83s67-41.05,102.5-54.42c68-25.68,157.32-22.73,227.83-11.57,71.28,11.3,137,36.27,197.67,70.82" transform="translate(-288.22 -149)"/><path class="cls-1" d="M441.35,149.5Q389.62,157.27,338,166c-16.55,2.84-33.06,5.88-49.54,9" transform="translate(-288.22 -149)"/><path class="cls-1" d="M1404,463.75c-56.67-30.36-118.27-50.41-185.24-55.86-169.12-13.79-311.71,77.78-446.83,167.24C675,639.32,581.75,708.65,487.73,777" transform="translate(-288.22 -149)"/><path class="cls-1" d="M518.54,777c83.1-60.34,166-121,251.59-177.63C838.32,554.19,909.89,505,985.24,472.62c69.45-29.89,150.58-42.1,225.82-35.89,69.9,5.76,134,27,192.94,59.19" transform="translate(-288.22 -149)"/><path class="cls-1" d="M288.5,222.92c18.44-4.73,36.9-9.37,55.44-13.74,92-21.67,184.5-40.62,277-59.68" transform="translate(-288.22 -149)"/><path class="cls-1" d="M547.94,149.5c-68.43,11.89-136.79,24.13-204.86,38-18.24,3.72-36.43,7.68-54.58,11.76" transform="translate(-288.22 -149)"/><path class="cls-1" d="M1302.64,777a638.93,638.93,0,0,0-91.36-25.86,628.37,628.37,0,0,0-124.59-12.74c-32-.1-69.89-1.37-101,7.16-23,6.31-46.6,18.7-69.18,31.44" transform="translate(-288.22 -149)"/><path class="cls-1" d="M983.33,777c1.2-.32,2.4-.63,3.59-.92,32.09-7.68,69.24-5.89,102.08-5.26a657.59,657.59,0,0,1,78,6.18" transform="translate(-288.22 -149)"/><path class="cls-1" d="M1067.05,149.5a445,445,0,0,0-57.61,15.9c-44,15.57-86.72,47.36-126.81,71.14-34,20.11-67.67,40.74-101.24,61.58C637.75,387.58,497.9,482.93,356.14,575.34c-22.62,14.73-45.05,29.78-67.64,44.49" transform="translate(-288.22 -149)"/><path class="cls-1" d="M288.5,637q35.37-23,70.48-46.29c140.07-92.83,278.14-188.82,420.2-278.6,36.21-22.84,72.62-45.36,109.34-67.25,37.15-22.21,75.67-50.31,115.76-66.41,34.1-13.69,74.83-19,111-24.21q21.59-3.06,43.35-4.74" transform="translate(-288.22 -149)"/><path class="cls-1" d="M1404,191a595.28,595.28,0,0,0-161.89-31.81,641.68,641.68,0,0,0-123,5.57c-39.14,5.48-83.35,11.9-119.76,27.89-39.46,17.27-77.45,44.21-114.28,66.42-36.31,21.89-72.29,44.41-108,67.25-140.48,90.09-276.65,186.5-415.15,279.54-24.51,16.46-48.85,33.2-73.42,49.5" transform="translate(-288.22 -149)"/><path class="cls-1" d="M288.5,672.86c23.72-15.84,47.24-32.08,70.9-48.16C499.78,529.35,637.65,430,780.14,337.79q48.6-31.57,98.18-61.88c39.36-24.1,80.19-53.68,122.81-71.78,72.19-30.52,163.63-38.1,241.09-33.58A574.28,574.28,0,0,1,1404,203.85" transform="translate(-288.22 -149)"/><path class="cls-1" d="M905.65,149.5q-7.9,4.17-15.76,8.11c-36.31,18.31-72.72,36.73-108.91,55.25-144.07,73.78-286.87,150-429.58,226.39l-62.9,33.67" transform="translate(-288.22 -149)"/><path class="cls-1" d="M288.5,492l65-35.87c143.22-79.25,286.35-158.82,431-235.44q54-28.58,108.29-56.62c8.82-4.55,17.75-9.47,26.77-14.53" transform="translate(-288.22 -149)"/><path class="cls-1" d="M1404,431.49c-57.06-29.89-119.12-49-186.62-52.86-168.06-9.58-313.07,86.2-447.25,175.45C663.63,624.93,561.51,701.9,458,777" transform="translate(-288.22 -149)"/><path class="cls-1" d="M487.73,777c94-68.32,187.29-137.65,284.2-201.84,135.12-89.46,277.71-181,446.83-167.24,67,5.45,128.57,25.5,185.24,55.86" transform="translate(-288.22 -149)"/><path class="cls-1" d="M961.63,149.5c-26.29,14.32-52,30.81-77.11,44.73Q831.81,223.6,779.4,253.8C636.8,336,496.63,422.31,355.61,507.14q-33.5,20.21-67.11,40.23" transform="translate(-288.22 -149)"/><path class="cls-1" d="M288.5,565.21q35.06-21.36,70.06-42.91C499.47,435.47,639.22,347,781.82,263Q836,231.07,890.73,200.13c28-15.84,56.88-35.39,86.52-50.63" transform="translate(-288.22 -149)"/><path class="cls-1" d="M933.06,149.5c-14.78,8.36-29.42,16.76-43.91,24.42q-53.67,28.43-106.92,57.57c-144.69,78.94-287.5,161.35-430.61,243q-31.56,18-63.12,35.95" transform="translate(-288.22 -149)"/><path class="cls-1" d="M946.62,149.5c-18.63,10.73-36.93,22-54.83,31.68q-53.35,28.89-106.29,58.63c-143.65,80.51-285,164.92-427,248.28l-70,40.41" transform="translate(-288.22 -149)"/><path class="cls-1" d="M288.5,529" transform="translate(-288.22 -149)"/><path class="cls-1" d="M862.21,149.5q-36,16.19-72,32.52Q569.56,282.12,350.35,385.68q-30.93,14.65-61.85,29.39" transform="translate(-288.22 -149)"/><path class="cls-1" d="M288.5,434.65q29.49-14.65,59-29.29Q564.86,297.54,784,193.5q46.53-22.08,93.32-44" transform="translate(-288.22 -149)"/><path class="cls-1" d="M712.71,149.5c-122.45,33.36-245.29,65.58-367,101.57-19.15,5.66-38.2,11.65-57.22,17.68" transform="translate(-288.22 -149)"/><path class="cls-1" d="M288.5,291.07c19.35-6.7,38.71-13.36,58.17-19.69,131.89-42.81,265-81.58,397.72-121.88" transform="translate(-288.22 -149)"/><path class="cls-1" d="M673.17,149.5c-109.59,26.28-219.33,51.84-328.29,80.83-18.86,5-37.63,10.34-56.38,15.73" transform="translate(-288.22 -149)"/><path class="cls-1" d="M770.27,149.5c-141,47-282.53,92.32-422.66,141.67-19.79,7-39.46,14.31-59.11,21.65" transform="translate(-288.22 -149)"/><path class="cls-1" d="M288.5,334.21c20-8,39.94-16,60.06-23.57C495.15,255.17,643,203.39,790.44,150.34l2.34-.84" transform="translate(-288.22 -149)"/><path class="cls-1" d="M830,149.5l-41.75,17.05C640.59,226.86,492.84,287.17,346.25,350q-28.92,12.35-57.75,24.85" transform="translate(-288.22 -149)"/><path class="cls-1" d="M288.5,395.25q29.89-13.63,59.85-27.14c145.43-65.79,291.82-129.46,438.41-192.72,19.28-8.3,38.55-17,57.85-25.89" transform="translate(-288.22 -149)"/><path class="cls-1" d="M792.78,149.5l-2.34.84c-147.43,53-295.29,104.83-441.88,160.3-20.12,7.6-40.09,15.59-60.06,23.57" transform="translate(-288.22 -149)"/><path class="cls-1" d="M288.5,355c18.88-8,37.77-16,56.8-23.68C492.41,271.8,640.8,215.49,788.87,158.45l23.19-8.95" transform="translate(-288.22 -149)"/><path class="cls-1" d="M891.73,149.5q-52.28,25.33-104.44,51.05C642.17,272.12,498.1,345.69,354.35,419.89q-32.93,17.06-65.85,34.05" transform="translate(-288.22 -149)"/><path class="cls-1" d="M288.5,472.92l62.9-33.67C494.11,362.84,636.91,286.64,781,212.86c36.19-18.52,72.6-36.94,108.91-55.25q7.85-3.93,15.76-8.11" transform="translate(-288.22 -149)"/><path class="cls-1" d="M1404,325.52c-55.19-26-114.87-41.64-179.36-43.09-169.32-3.79-316.75,97.67-451.56,188.19C634.59,563.55,502.94,666.17,367,762.69L346.86,777" transform="translate(-288.22 -149)"/><path class="cls-1" d="M373.6,777c133-94.66,261.89-195.15,397.48-286,133.55-89.46,283.29-193.66,450.73-191.66,65.7.77,126.31,16.8,182.19,43.74" transform="translate(-288.22 -149)"/><path class="cls-1" d="M1404,292.32c-54.56-24.3-113.23-39.2-176.31-41.36-173.63-6-317.06,91.57-455.24,184.4S502.41,629.76,366.67,726c-24.06,17.06-48.38,34.15-73,51" transform="translate(-288.22 -149)"/><path class="cls-1" d="M320.52,777q24.15-16.92,47.93-33.86C503.15,647.33,634,546.19,771.08,453.88s283.82-192.81,456.4-187.34c63.29,2,122,17.32,176.52,42.29" transform="translate(-288.22 -149)"/><path class="cls-1" d="M1404,261c-51.67-21.6-106.79-35.35-165.58-38.78-79.87-4.63-167.84,9.05-241.08,42.2-77.25,34.95-150.28,88.1-220.68,135C636.8,492.72,502.84,594.18,365.4,690.8c-25.37,17.84-51,35.56-76.9,52.88" transform="translate(-288.22 -149)"/><path class="cls-1" d="M288.5,762.07c25.44-17.17,50.56-34.67,75.43-52.22,137.33-96.93,271-199,410.62-292.59,70-46.84,142-97.36,217.94-134,71.88-34.62,158.81-50.3,238.15-47,61.83,2.57,119.53,17,173.36,40.25" transform="translate(-288.22 -149)"/><path class="cls-1" d="M1404,367.81c-55.71-27.62-116.21-44.39-181.88-45.91C1054.9,318,904.63,421.68,771.19,510.82,644.78,595.3,524.38,688.28,400.88,777" transform="translate(-288.22 -149)"/><path class="cls-1" d="M428.93,777c112.76-81.47,223.43-165.86,339.21-243.2,134.69-90,283.49-190.82,452.5-183.56,66.25,2.85,127.23,20.8,183.36,49.47" transform="translate(-288.22 -149)"/><path class="cls-1" d="M1260.27,149.5a619.76,619.76,0,0,1,143.73,29" transform="translate(-288.22 -149)"/><path class="cls-1" d="M1404,166.18a656.8,656.8,0,0,0-65.28-16.68" transform="translate(-288.22 -149)"/><path class="cls-1" d="M997.63,149.5c-39.41,16.67-77.59,43.75-114,64.73q-51.93,30-103.23,60.83c-143.13,86.1-283.19,177.25-424.63,266.18C333.29,555.4,311,569.92,288.5,584.12" transform="translate(-288.22 -149)"/><path class="cls-1" d="M288.5,601.2q35.22-22.25,70.27-44.7C498.52,466.93,636.69,374.84,778.24,288q55.41-33.94,111.34-66.73c37.88-22.1,77.13-50.73,118.07-66.2,5.45-2.06,11.07-3.91,16.82-5.58" transform="translate(-288.22 -149)"/><path class="cls-1" d="M1404,217.64A555,555,0,0,0,1244.22,183c-79.77-5.16-174.59,3.58-248.25,37.26C957.24,238,920.2,263.91,883.89,286.12q-53.5,32.67-106,67.15C637,445.46,501.05,544.82,362.24,640.17c-24.59,16.9-49,34-73.74,50.66" transform="translate(-288.22 -149)"/><path class="cls-1" d="M288.5,708.46c25.67-17.33,51.07-35.12,76.58-52.81,137.12-95.15,271.4-194.5,410.84-286.49q51.76-34.26,104.61-66.84c38.62-23.89,78.39-52.09,120.17-70,71.45-30.62,158.49-41.15,235.63-37.15,59.27,3.07,115.1,16,167.67,36.49" transform="translate(-288.22 -149)"/><path class="cls-1" d="M1404,231.67c-52.57-20.5-108.4-33.42-167.67-36.49-77.14-4-164.18,6.53-235.63,37.15-41.78,17.9-81.55,46.1-120.17,70q-52.89,32.54-104.61,66.84c-139.44,92-273.72,191.34-410.84,286.49-25.51,17.69-50.91,35.48-76.58,52.81" transform="translate(-288.22 -149)"/><path class="cls-1" d="M288.5,726.5c24.8-16.89,49.35-34.19,73.95-51.38,139-97,274.77-198.92,416.1-292.6C847.27,337,918,286.64,992.61,251.07c72.6-34.63,163.85-46.84,243.51-42.63,59.5,3.16,115.39,16.57,167.88,37.81" transform="translate(-288.22 -149)"/></svg>