<svg id="Слой_1" data-name="Слой 1" xmlns="http://www.w3.org/2000/svg" xmlns:xlink="http://www.w3.org/1999/xlink" viewBox="0 0 1600 900"><defs><style>.cls-1{fill:#c4c4c4;}.cls-2{mask:url(#mask);}.cls-3{fill:none;stroke:#3a506b;stroke-miterlimit:10;stroke-opacity:0.4;}</style><mask id="mask" x="-45.23" y="-39.32" width="1729.17" height="1011.56" maskUnits="userSpaceOnUse"><g id="mask0"><rect class="cls-1" x="-0.16" y="0.18" width="1600" height="900"/></g></mask></defs><title>Монтажная область 4</title><g class="cls-2"><path class="cls-3" d="M-21.57,901.31c64.25,11.22,128.17,11,192.94,4.07,53.29-5.69,106.44-14.73,160.24-14.82,51.68-.08,102.3,9.35,149.5,29.37,24.7,10.48,47.13,25.15,72.28,34.66,23.35,8.83,48.13,13.83,73.17,15.87C728.29,978.74,829.43,944.79,927,923c50.19-11.22,101.14-20.61,152.88-21.31,53.06-.72,106.19-.09,159.26-.14q198.46-.18,396.94,0"/><path class="cls-3" d="M-27,877.83c67.84,9.44,135,7.27,202.87-.41,53.4-6,106.73-14.4,160.65-14.65,55-.24,109.18,9.16,159.85,29.7,46.32,18.78,84.42,43.94,135.67,50.13,96.64,11.73,194.32-18.35,287.61-37.9,50.24-10.52,101-19.35,152.57-20.44,53.5-1.14,107-1.8,160.51-2.75,138.06-2.44,276.19-4,414.26.35"/><path class="cls-3" d="M-31.56,855.42c69.16,7.27,137.47,3.69,206.34-4.4,56.49-6.63,113-15.23,170.11-15.17,54.6,0,108.53,8.95,159.34,28,46.6,17.5,85.48,44.43,136,52.09,91.16,13.83,184.61-11.61,273.34-28.62,105.84-20.28,211.74-21.34,319.28-25,141.16-4.89,282.33-7.81,423.43.4"/><path class="cls-3" d="M-35.39,834c128.68,9.3,252.46-23.49,380.35-24.27,58.86-.36,117.1,8.77,172,28.93,43.53,16,80.45,41.92,126.91,50.94C732.5,906.81,825,885,912.2,870.2c105.77-18,212.2-20.73,319.28-26.21,144.28-7.38,288.41-11.81,432.59.09"/><path class="cls-3" d="M-38.53,813.56c130.37,5.16,256.44-28.27,386.14-29.17,60-.4,119.44,8.47,175.75,28.17,43.14,15.09,79.71,41.27,124.88,51.68,85.29,19.67,175.63,2.61,260.6-9.88,107.14-15.73,215-20.64,323.05-28,146.36-10,292.28-15.88,438.51-.47"/><path class="cls-3" d="M-41,794c132.45.93,261.19-33.78,393.26-34.18,58.64-.19,116.82,8.13,172.28,26.29,45.62,14.94,83.94,42.65,130.86,54.53,81.32,20.64,168.27,8.66,250.34-1.33,108-13.13,216.34-20.34,324.72-29.75,148.68-12.85,296.41-20.4,445-1.52"/><path class="cls-3" d="M-42.85,775.24c132.27-3.41,261.27-38.33,393.49-39.36,60.73-.48,121,7.82,178.63,26.16,44,14,80.75,40.7,125.12,53.88,80.17,23.88,166.77,16.79,249.05,9,110.64-10.58,221.35-20.34,331.88-32,148.54-15.56,295.43-24.27,443.89-2.27"/><path class="cls-3" d="M-44.13,757.25c133.2-7.88,263.66-44,397.35-44.67,58.84-.31,117.42,7.5,173.61,24.33,27.27,8.14,49.39,18.83,73.8,32.1a335.79,335.79,0,0,0,55,23.7c78.66,26,164.19,23.84,246.19,18.22,113.47-7.8,226.44-20.34,339.21-34.29,147.78-18.3,293-28.07,440.8-3.1"/><path class="cls-3" d="M-44.89,740c132.57-12.4,262.91-49,396.6-50,59-.44,117.77,7.13,174.25,23.41C553.45,721.3,575.6,731.46,600,745A387.08,387.08,0,0,0,655,769.87c78.23,28.49,163.61,31.07,246.42,27.55,115.41-4.88,229.6-19.95,343.67-36.37,147.3-21.21,290.87-32.23,438.27-4.26"/><path class="cls-3" d="M-45.16,723.31C85.6,706.44,214.67,669.59,347.31,668A630.21,630.21,0,0,1,525.94,691a306.59,306.59,0,0,1,70,29.25A464.32,464.32,0,0,0,654,747.88C733.32,779,819.94,786,905,784.31c115.22-2.25,228.5-19.29,341.77-38,65.33-10.78,130.87-21.33,197.16-25.1,80.91-4.61,160.86,2.5,239.89,19.15"/><path class="cls-3" d="M-45,707.23c128.5-21.3,256-58.42,387.19-60.72a644.73,644.73,0,0,1,177.14,21.22,310.23,310.23,0,0,1,74.44,30.11A559.52,559.52,0,0,0,649,725c189.91,80.42,409.37,42.64,605.26,6C1318,719,1382,707.31,1446.86,703.12c80-5.16,158.92,3,236.7,21"/><path class="cls-3" d="M-44.48,691.67c126.45-25.84,252.63-63.52,383-66.09a655.93,655.93,0,0,1,176.26,20.29c27.33,7,50.5,16,74.77,29.54,18.26,10.16,37,19.64,56.09,28.19,195.22,87.07,411.33,55.34,614.14,12.63,62.28-13.1,124.84-26.14,188.6-30.85,79.39-5.86,157.39,3.35,234.11,22.79"/><path class="cls-3" d="M-43.61,676.54C81.41,646,207,607.37,337.33,605.07a665.16,665.16,0,0,1,174.09,20,298.88,298.88,0,0,1,74,29c19.72,10.82,39.8,21.08,60.31,30.49,81.69,37.43,169.36,58.31,260.09,62.56,122.19,5.7,239.21-17.13,357-44.83,60.31-14.17,120.91-28.6,182.94-34.18,79.89-7.15,158.14,3.14,234.92,24.37"/><path class="cls-3" d="M-42.44,661.85c122.21-35.11,246.05-74.2,375-76.75a673,673,0,0,1,172.51,19.1,298.11,298.11,0,0,1,74.37,28.38c20.29,10.95,40.79,21.58,61.67,31.52,83.44,39.72,172.21,64.94,265.7,71,124.59,8.08,242.76-16.28,362-47.3,58.63-15.27,117.54-31,178.2-37.12,79-7.93,156,3.68,231.34,26.25"/><path class="cls-3" d="M-41,647.46c118.49-39.35,239.69-78.75,366.54-81.87A679.45,679.45,0,0,1,500.2,584.31C549,596,589.08,620.93,633.26,642.71c86,42.39,176.53,72.52,273.73,80.43,64.61,5.26,132.39,3.62,196.32-7.13,58.8-9.88,116.49-26.85,173.55-43.23,56.49-16.21,113.35-33.15,172.23-39.53,77.66-8.41,153,4.56,226.41,28.33"/><path class="cls-3" d="M-39.42,633.33c115.12-43.68,234.19-83.62,359.54-86.92A686.54,686.54,0,0,1,492.7,564.27c49.43,11.43,90.44,36.16,135,58.6,88.15,44.43,179.91,78.75,280.14,88.31,66.73,6.36,137.48,5.05,203.48-6.77,58.27-10.43,115.25-28.61,171.41-46.26,54.66-17.18,109.68-35.44,167.12-42.32,76.6-9.13,150.63,5.41,222.42,30.41"/><path class="cls-3" d="M-37.65,619.41c112.46-48.29,230.23-88.92,355.1-91.9,55.32-1.32,110.63,4.69,164.48,16.54,51.55,11.36,94.43,36.06,140.55,59.71,89.88,46.09,182.4,84.18,285,95.36,68.55,7.47,141,6,208.83-6.16,59.38-10.68,117.21-30.78,173.88-50.2,52.5-18,105.37-37.3,161-44.42,75.22-9.6,147.66,6.68,217.41,32.74"/><path class="cls-3" d="M-35.79,605.64c108.08-52.09,223-93.26,345.66-96.57,55.85-1.51,111.64,4.53,166.05,16.28C527.51,536.5,571.06,561,617.07,585c93.19,48.47,188,90.51,294.93,102.54,68.76,7.75,141.67,6.24,209.75-6.13,58.63-10.65,115.9-32.14,171.26-52.72,51.77-19.24,103.86-40.35,159.33-47.92,73.83-10.09,144.89,8.18,212.52,35.24"/><path class="cls-3" d="M-33.84,592c103.65-55.76,215.68-97.46,336.23-101,56.29-1.63,112.55,4.41,167.4,16.08,50.29,10.67,93.29,34,138,57.47,94.49,49.68,189.23,95.81,297.81,110,73.74,9.67,154.21,8.88,227.06-6.37,55.95-11.7,110.26-32.72,162.87-53.71,51-20.4,102.25-43.38,157.53-51.38,72.54-10.48,142.38,10,207.9,37.92"/><path class="cls-3" d="M-31.89,578.28C68.75,518.23,179.27,476,299.54,472.9c53.6-1.36,107.17,4.45,159.53,15.08,52.18,10.58,96.92,33.58,143.12,58.12C699.83,598,796.56,647.71,909.26,662.47c73.87,9.7,153.26,8.06,226.21-7,57.39-11.83,112.83-34.6,166.1-57.47,49-21,98.14-44.93,151.81-53C1524.79,534.29,1593.45,557,1657,585.8"/><path class="cls-3" d="M-30,564.55C66.28,501.22,173.9,458.44,292.34,455.19c52.51-1.44,105,4.18,156.36,14.16,54,10.51,100.28,33,147.91,58.57,99,53,195.78,105.69,310.31,121.58,75.68,10.5,156.81,8.38,231.61-7,58.38-12,114.81-36.77,168.27-61.25,47-21.52,94.28-46.39,146.48-54.4,70.5-10.78,138.07,14.15,199.84,43.87"/><path class="cls-3" d="M-28.14,550.74C65.17,483.43,171.31,440.13,289.8,437.6c51.55-1.11,103.06,4.74,153.53,14.4,53.83,10.32,100.4,32.3,147.83,57.92,100,54,196.61,109.38,312.58,126.19,78.71,11.4,165.68,9.57,243.07-8.72,55.85-13.2,109.47-36.91,160.5-61.59,45.41-22,91-47.93,141.82-56.72,70.93-12.25,139.1,15.42,200.28,46.55"/><path class="cls-3" d="M-26.42,536.75c89.09-70.17,192.65-114.12,309.69-116.51,52.12-1.07,104.15,5,155.18,14.65C492.05,445,538.79,466.38,585.92,492c100.64,54.8,196.7,112.61,313.8,130.21,80.25,12,166.86,9,245.84-9.26,57.81-13.32,113-38.48,165.14-65.05,43.83-22.32,87.88-49,137.61-57.62,70.39-12.21,138,18.21,197.61,50.13"/><path class="cls-3" d="M-24.88,522.54C61,449.07,162.93,404.73,279.78,403c51-.76,101.91,5.36,151.87,14.57,53.15,9.76,99.56,29.47,146.29,55,103.43,56.58,200.5,118.35,321.42,136,81.26,11.84,170.38,8.08,249.94-11.87,56.7-14.23,110.65-39.26,161.59-66.24,42.39-22.46,84.93-49.85,133.43-58.86,71-13.18,139.4,20.35,198.47,53.54"/><path class="cls-3" d="M-23.56,508c83-76.65,183.41-121.37,300.34-122.28,50.05-.39,100,5.84,149,14.65,54,9.72,101.07,28.57,148.42,54.79C676.81,512,772,575.22,892.34,593.33c146.33,22,291.06-11.93,417.66-81.13,42.18-23.06,84.64-51.82,133.49-60.43,70.7-12.46,138.93,24,196.69,57.85"/><path class="cls-3" d="M-22.48,493.18c79.74-79,178.06-124.12,294.44-124.55,103.65-.38,208.67,18.64,298.16,68.81,101.82,57.11,194.84,121.89,315,140.21,146.62,22.36,294.7-13.18,421-83.5,42.57-23.69,85.43-54.13,135.17-62.45,71-11.87,139.79,27.6,196.69,62.34"/><path class="cls-3" d="M-21.73,477.92c77.57-82,174.92-127.13,292-126.4C370.83,352.15,476.8,369,563.71,418c46.59,26.33,90.4,56.87,137.62,82.31,55.92,30.12,116,52.41,179.89,61.6,147.71,21.28,298.41-18,424.77-89.59,41.77-23.66,84.09-54,133.41-61.38,71.62-10.67,140.66,31.6,197.06,67.26"/><path class="cls-3" d="M-21.33,462.17c39.7-44.48,86.55-82.86,144.26-104.89,46.46-17.72,96.64-23.75,146.51-22.9s99.24,8,148,16.53c51.07,8.89,95.87,22.27,140.59,47.68,46.6,26.48,89.74,58,136.56,84.13,54.36,30.33,113,52.71,175.66,61.85,148.48,21.68,303.56-21,430.44-93,41.63-23.6,83.83-54.07,133-61.43,73.65-11,144.68,34.74,201.92,72"/><path class="cls-3" d="M-21.33,446C18,401.2,64.51,362.7,122.19,340.67,168.38,323,218.43,317.32,268,318.28c50.81,1,101.28,8.44,151.2,16.9,51.37,8.7,96.06,21.61,141,47.32,44.11,25.22,85.06,55.05,129.44,79.86,53.07,29.63,110.29,51.38,171.5,60.13,146.86,21,302.34-23.36,429.45-91.42,42.91-23,86.36-52.52,136.24-59.68,76.33-11,149.48,35.85,208.83,74.53"/><path class="cls-3" d="M-21.69,429.6C18.37,385.11,65.46,347,123.56,325.26c46.4-17.35,96.52-22.92,146.16-22,50.68.94,101,8.09,150.92,16,50.54,8,94.66,20.06,139.13,44.72,43.35,24,83.7,52.46,127.32,76.08,52.13,28.26,108.15,48.9,167.85,57.07,144.54,19.77,297.71-25.05,425.42-87,45.1-21.9,90.86-49.27,142.2-55.24,78.14-9.08,152,35.29,213.79,74.37"/><path class="cls-3" d="M-22.38,413.18c41.12-44.42,89.28-82.41,148.27-103.67,47.09-17,97.63-22.28,147.78-21.27,49.62,1,98.92,7.66,147.88,14.91,48.67,7.19,91.57,17.61,134.86,40.48,44,23.25,84.79,51.48,128.79,74.76,51.29,27.14,106.41,46.93,164.87,54.53,84.12,11,166-3.49,247.27-23.52a1051.14,1051.14,0,0,0,175.17-60.31c47.46-21.06,95.79-46.29,149-50.61,78.85-6.41,152.51,35,216.06,73.77"/><path class="cls-3" d="M-23.36,396.69c42.38-44.4,91.8-82.1,151.77-102.93,46.64-16.22,96.43-21.39,145.89-20.61,50,.81,99.71,7.15,149.13,13.9,49.58,6.78,93,17,137.14,40,92,48.12,172.65,107.13,280,121.86,81.86,11.24,161-2.5,240.27-21.35A1271.66,1271.66,0,0,0,1265.22,369c48.82-19.76,98.37-42.52,152.19-46.28,80.73-5.63,155.83,33.45,222.06,72.29"/><path class="cls-3" d="M-24.57,380.16C19.21,335.77,70,298.38,131.13,278c47.55-15.87,98.09-20.72,148.28-19.84,50.56.88,100.83,7.09,150.89,13.42,47.76,6,89.36,15.73,132,37.54,91.91,47,172.36,104.91,279.4,118,75.32,9.23,149.11-2.38,222-19.86,65.08-15.61,128-32.79,190.53-56,52.64-19.48,106.14-41.66,163.34-44.31,81.12-3.76,156.43,32.55,224.16,70.51"/><path class="cls-3" d="M-26,363.58c45.11-44.2,97.18-81.1,159.21-101.09,48.28-15.56,99.41-20.22,150.2-19.35S385,250,435.53,255.82c47.1,5.46,87.84,14.7,129.94,35.93C655,336.9,733.58,392.52,837.37,405.31c72.88,8.95,144-2.19,214.68-18.72,65.72-15.34,129.69-31.35,193.46-53.08,54.92-18.72,110.67-39.51,169.71-41.84,82.44-3.25,159.18,30.63,229.23,68.07"/><path class="cls-3" d="M-27.54,347c46.78-44.2,100.41-80.71,163.84-100.22,48.06-14.78,98.71-19.27,149-18.58,53.06.72,105.86,6.76,158.52,12.3,45.25,4.76,84.22,13.76,124.77,33.89,86.07,42.75,162,96.21,261.09,109.39,72.71,9.65,142.62-1.78,213.38-17.23,65.07-14.19,128.69-29.47,192.11-49.44,57.52-18.11,115.8-38,177-40.32,84.08-3.2,162.57,28.32,235.19,65.1"/><path class="cls-3" d="M-29.22,330.33c47.42-43.13,101.3-78.67,164.44-97.94,50.49-15.4,103.63-19.87,156.46-19,52.45.81,104.66,6.51,156.8,11.45,46.32,4.41,85.52,13.37,126.85,34,82.84,41.26,156.74,91.82,252.1,104.63,71.21,9.56,138.39-2.22,207.76-16.55,64.23-13.25,127.2-27.37,190.07-45.77,60.07-17.58,120.81-36.66,184.22-39.06,85.62-3.3,166,25.88,241.09,61.85"/><path class="cls-3" d="M-31,313.68c49.19-43.13,104.85-78.21,169.45-96.92,51.77-15,106-19,159.84-18,51.86,1,103.5,6.25,155.11,10.68,46.25,4,84.74,12.21,126.13,32.66C660.49,282,732.87,331.13,825.71,343.79c66.23,9,130.55-.21,195.2-13.84,67.09-14.15,133.45-27.51,199.58-45.57,61-16.66,122.69-34.25,186.58-36.82,87.07-3.48,169.28,23.32,246.86,58.29"/><path class="cls-3" d="M-32.75,297C18,254.17,75.2,219.65,141,201.46c52.79-14.59,107.81-18.35,162.53-17.28,52.45,1,104.7,6.16,157,10.2,45.79,3.53,83.35,11.52,124.35,31.59C663.41,264.46,734,311.9,823.86,324.54c63.64,9,125.57.66,187.89-12,67.75-13.77,135-26.58,201.92-43.72,63-16.13,126.65-32.9,192.27-35.56,88.07-3.58,171.72,20.85,251.33,54.46"/><path class="cls-3" d="M-34.51,280.37C18.12,237.63,77.08,203.6,144.41,186c52.64-13.73,107.29-17.24,161.67-16.22,54.84,1,109.45,6.29,164.13,10,44,3,80.06,11,119.49,30.11,76.93,37.27,146.07,83.37,233.69,96,61.89,9,121.52.85,182.32-10.53,68.7-12.85,136.71-26,204.61-42.32,63.64-15.33,127.83-30.88,193.74-33.78,89.37-3.93,174.75,18.14,256.6,50.38"/><path class="cls-3" d="M-36.22,263.73C17,222.14,76.19,189.1,143.26,171.88c55.32-14.22,112.8-17.47,169.88-16.16,54.25,1.22,108.3,6.19,162.43,9.51,22.48,1.38,43.85,1.58,65.51,7.85,18.62,5.4,36.45,12.89,53.79,21.16,75.35,36,143.25,80.86,228.72,93.5,60.06,8.89,117.73,1.28,176.85-9.23,67.85-12.06,135.06-24.41,202.22-39.69,65.74-15,132-30.12,199.75-33.37,90.53-4.32,177.56,15.46,261.53,46.11"/><path class="cls-3" d="M-37.84,247.11C17,205.9,77.6,173.51,145.79,156.9c56.32-13.71,114.65-16.55,172.59-15.08,54.84,1.4,109.49,6.31,164.25,9.29,22.5,1.22,43.72,1.2,65.39,7.51,18.21,5.32,35.69,12.61,52.71,20.64,73.46,34.66,140.11,77.84,223,90.59,57.58,8.87,113.29,2.49,170.17-7.18,68.36-11.62,136.14-23.68,203.89-38.25,67.3-14.5,135.1-29,204.29-32.55,91.17-4.55,179.34,12.93,264.85,41.79"/><path class="cls-3" d="M-39.3,230.52c56.57-41,119-72.78,188.61-88.66,56.09-12.76,113.91-15.25,171.36-13.74,55.7,1.47,111.22,6.43,166.85,9.15,23.82,1.18,46.31,1,69.19,7.86A375.2,375.2,0,0,1,606,164.35c71.05,32.85,136.07,74.15,215.54,87.38,54.82,9.15,109,5,163.43-4,69.1-11.47,137.8-23,206.4-37.06,69.14-14.14,138.67-28.32,209.49-32.14,92.06-5,181.58,10.3,268.86,37.36"/><path class="cls-3" d="M-40.6,214C17.73,173.28,81.78,142.13,152.88,127c57.24-12.16,116.1-14,174.56-12.21,56.51,1.81,112.85,6.82,169.34,9.23,22.7,1,43.7.72,65.49,7.16A391.9,391.9,0,0,1,614,151c69.18,31.55,133.18,70.33,210.11,83.46,53.37,9.12,106.14,5.51,159.3-2.54,69.62-10.52,138.68-22.51,207.73-35.9,70.82-13.74,142-27.29,214.37-31,90.94-4.64,179.76,8.57,266.75,33.19"/><path class="cls-3" d="M-41.66,197.47c59.72-40.2,125-70.54,197.1-84.9C213.5,101,273,99.67,332.12,101.83c57,2.09,113.75,7.15,170.7,9.34,22.74.87,43.69.48,65.53,6.84a416.69,416.69,0,0,1,51.29,19.19c68.23,30.11,131.85,67.09,207.1,80.2,51.39,9,102.55,6.51,154-.75,69.7-9.83,138.82-21.68,208-34.43,71.9-13.25,144.11-26.24,217.39-30.17,91-4.89,180.35,6.33,268.2,28.87"/><path class="cls-3" d="M-42.45,181C18.86,141.21,85.66,111.63,159,98.18c59.07-10.84,119.46-11.5,179.38-8.9,56,2.45,111.88,7.42,167.92,9.42,23.06.81,44.49.09,66.72,6.36a438.88,438.88,0,0,1,51.5,18.47c68.06,28.63,132,64.06,206.24,77,49.92,8.73,100,7.21,150.07.55,68.26-9.07,136-20.35,203.77-32.22,73.14-12.8,146.54-25.38,220.91-29.65,91.36-5.23,181.43,4.07,270.23,24.59"/><path class="cls-3" d="M-42.94,164.65C19.85,125.3,88,96.53,162.51,84c58.37-9.76,117.84-10,176.9-7.12,56.58,2.71,113,7.91,169.61,9.87,24.44.81,47.24.08,70.83,6.63A486.72,486.72,0,0,1,629,110.3c68.31,27.05,133,60.72,206.67,73.5,115.8,20.07,237.43-10.31,351.29-29.17,74.22-12.28,148.69-24.19,224-28.34,89.52-4.93,178.13,2.77,265.67,20.78"/><path class="cls-3" d="M-43.08,148.33C21.07,109.5,90.47,81.59,166,70.13c59.13-9,119.24-8.35,178.78-5,57,3.2,113.9,8.63,171,10.4,23.12.72,44.87.12,67.31,6q25.46,6.8,50.09,16c69,25.31,134.81,57,208.38,69.54,113.6,19.3,231.32-8.31,343.29-25.8,75-11.7,150.15-23.08,226.08-27.46,89.41-5.16,178.14.9,266.06,16.86"/><path class="cls-3" d="M-42.82,132.1C22.52,93.85,93,66.93,169.38,56.54c58.09-7.9,117-6.73,175.35-3,59,3.72,117.76,9.71,176.84,11.39,22,.62,42.37.15,63.8,5.3,17.37,4.18,34.45,9.37,51.35,15,69,23.07,135.48,52.18,208.13,64.48,112.62,19.07,227.38-5.65,338.73-22,165-24.12,326.88-39.32,492.86-13.1"/><path class="cls-3" d="M-42.13,116c66-37.38,137.07-63.25,213.71-72.59,58.24-7.07,117.1-5.12,175.49-.88,58.77,4.27,117.4,10.58,176.36,12.2,22.05.62,42.59.22,64.16,4.95,17.77,3.88,35.31,8.66,52.69,13.84C710.64,94.52,778.89,121,852,132.7c111.51,17.81,223.4-4.07,333.89-19C1349.27,91.56,1510.67,76.82,1675.16,99"/><path class="cls-3" d="M-41,100C24.61,64,94.77,39.45,170.32,31c60.61-6.79,121.67-3.76,182.3,1.39C408.39,37.1,464,43.37,520,45.21c23.71.81,46.43.35,69.75,4.88,18.51,3.61,36.83,8,55,12.74,71.93,18.71,142.38,42.23,216.45,52.89,112,16.16,223.06-3.39,334.2-17.09C1354.64,79,1512.71,65.79,1672.9,84"/><path class="cls-3" d="M-39.24,84C27,48.93,97.58,25.44,173.35,18.33c59-5.55,118.32-1.83,177.16,3.81,57.2,5.49,114.28,12.54,171.78,14.41A668.67,668.67,0,0,1,646.33,52C721.1,68.29,794.83,88.8,871.07,98.51c109.68,14,217.37-2,326.45-14,157.31-17.32,314-29.68,472.22-15.09"/><path class="cls-3" d="M-37,68.24C27.81,34.92,96.87,12.74,170.62,6.48c60.7-5.15,121.54-.21,181.88,6.46C407.61,19,462.64,26.34,518.18,28.46a962.18,962.18,0,0,1,132,13.75C727.34,55.77,803.8,72.62,881.9,81c107.28,11.49,212-.81,318.88-11,154.73-14.7,309.23-25.73,464.7-14.53"/><path class="cls-3" d="M-34.17,52.57C30.76,20.23,99.81-.72,173.29-5.49,232-9.31,290.57-3.58,348.68,3.73c54.46,6.87,108.86,14.93,163.81,17.41,45.09,2,89,4.89,133.81,10.71,81.21,10.58,162,23.92,243.71,30.93,107.76,9.23,213.08.12,320.57-8.14C1360.24,43.08,1509.85,34.25,1660,42.16"/><path class="cls-3" d="M-30.67,37C34.45,5.59,103.48-14,176.81-17.1,235.15-19.54,293.18-12.35,350.7-4,402.94,3.61,455.12,12,508,14.74c46.64,2.44,93,4.14,139.58,8.18,85.34,7.4,170.51,16.66,256.06,21.69,105.81,6.24,210,.41,315.63-5.56,144.58-8.14,289.23-14.57,434.09-9.6"/><path class="cls-3" d="M-26.47,21.67C38.2-8.64,106.59-26.85,179-28.18c55.82-1,111.11,7,165.92,16.14C397.57-3.3,450.15,6.25,503.58,9.28c47,2.66,94.21,2.85,141.25,4.88,91,4,181.93,9,273,11.72,103.07,3.17,205.51.49,308.54-2.79,139.64-4.44,279.31-8,419-5.7"/><path class="cls-3" d="M-21.54,6.44C42.68-22.76,110.44-39.45,182-38.8c53.33.49,105.9,9.62,158,19.58C391.35-9.39,442.81,1.16,495.24,4.65,543.16,7.84,591.72,6,639.74,6.07q298.95.62,597.92.46,199.2-.33,398.37-.3"/></g></svg>