<svg xmlns="http://www.w3.org/2000/svg" viewBox="0 0 33 33"><defs><style>.cls-1{fill:#f2f2f2;}</style></defs><title>starРесурс 1</title><g id="Слой_2" data-name="Слой 2"><g id="Слой_1-2" data-name="Слой 1"><path class="cls-1" d="M31.57,14.47,22,11,18.56,1.41a2.15,2.15,0,0,0-3.25-1,2.13,2.13,0,0,0-.78,1L11.06,11,1.43,14.47a2.1,2.1,0,0,0-1,.77A2.22,2.22,0,0,0,0,16.48a2.12,2.12,0,0,0,.38,1.25,2.19,2.19,0,0,0,1,.8L11,22l3.47,9.59a2.13,2.13,0,0,0,.78,1,2.13,2.13,0,0,0,2.46,0,2.13,2.13,0,0,0,.78-1L22,22l9.59-3.47a2.17,2.17,0,0,0,1-3.27A2.07,2.07,0,0,0,31.57,14.47Z"/></g></g></svg>