<svg xmlns="http://www.w3.org/2000/svg" viewBox="0 0 1600.06 348.44"><defs><style>.cls-1{fill:none;stroke:#5bc0be;stroke-miterlimit:10;}</style></defs><title>Ресурс 3</title><g id="Слой_2" data-name="Слой 2"><g id="Слой_2-2" data-name="Слой 2"><path class="cls-1" d="M0,349.5q607.83-.31,1215.64,0,192.18,0,384.36,0" transform="translate(0 -1.56)"/><path class="cls-1" d="M0,334.77c113.79-.94,227.56,2.88,341.38,1.8q149.26-1.41,298.5-.75c191.32,1.12,382.65-.37,574,.14,128.72.34,257.45-1.88,386.15-1.19" transform="translate(0 -1.56)"/><path class="cls-1" d="M0,320.52c111.87-.42,223.12,8.89,335.12,5.91,99.49-2.65,198.71-3.7,298.24-2.24,192.09,2.83,384.17-1,576.28.42,130.2,1,260.22-4.41,390.36-4.09" transform="translate(0 -1.56)"/><path class="cls-1" d="M0,306.76c56.83.43,113,7.45,169.63,11.45,52.34,3.69,104.71,2.42,157.07-.19,99.64-5,198.29-6.55,298.06-4.12,193.14,4.73,386.17-1.93,579.32.77,132.26,1.84,263.79-7.31,395.92-7.91" transform="translate(0 -1.56)"/><path class="cls-1" d="M0,293.48c55.58,1.12,109.85,11.08,165,17,51,5.48,101.84,3.73,152.92-.16a2701.35,2701.35,0,0,1,297.91-6.08c194.27,6.48,388.22-3.08,582.49,1.13,55.2,1.2,110.47,2.63,165.65.26,78.73-3.38,157.24-11.22,236.07-12.16" transform="translate(0 -1.56)"/><path class="cls-1" d="M0,280.66c54.63,1.57,107.07,14.2,160.93,21.81,49.94,7.06,99.48,4.92,149.48-.16,43.12-4.38,86.05-10.15,129.4-11.64,56-1.94,112.34,1.58,168.3,3.85,195.26,7.91,390-4.33,585.21,1.45,53.89,1.6,107.8,3.18,161.67.29,81.72-4.38,163.13-14.23,245-15.6" transform="translate(0 -1.56)"/><path class="cls-1" d="M0,268.3c54.2,1.47,105.22,16.15,158.36,24.88,49.22,8.09,98.4,5.7,147.71-.26,42-5.06,83.63-11.75,125.93-13.33,57-2.13,114.46,1.85,171.42,4.42,105.36,4.76,209.74,6.21,315.15,2.7,90.7-3,181-4.31,271.72-1,53,1.91,106,3.57,159,.42,83.63-5,166.87-16.47,250.7-17.79" transform="translate(0 -1.56)"/><path class="cls-1" d="M0,256.38c54.34,1.21,104.89,17.19,158,26,49.1,8.17,98.33,4.17,147.4-2.16,41.94-5.4,83.65-11.87,126-12.7,57.05-1.11,114.38,2.78,171.36,5.15,105.28,4.37,209.83,7.34,315.15,3,90.79-3.76,181.11-5.3,271.92-1.52,52.82,2.19,105.79,3.83,158.61.68,83.9-5,167.35-17.78,251.5-18.45" transform="translate(0 -1.56)"/><path class="cls-1" d="M0,244.91C54.58,246.25,105,263.53,158.36,272c49.34,7.85,98.27,1,147.36-5.46,100.16-13.12,197.58-7.14,298.27-3.79,104.38,3.46,208.35,9.26,312.7,3.14,91.42-5.36,182-7.37,273.49-2.64,53,2.74,106.33,4.44,159.39,1.15,83.58-5.18,166.59-19.33,250.46-19.51" transform="translate(0 -1.56)"/><path class="cls-1" d="M0,233.88c54.72,1.45,105,19.87,158.56,28.13,49.69,7.66,98.81-2.17,148.1-8.48,100.37-12.87,198.84-1.91,299.56.75,103.12,2.72,205.9,11.25,308.88,3,92.33-7.4,183-10,275.49-4,53.44,3.47,107.17,5.46,160.66,1.85,83-5.58,165.36-21.29,248.75-21.25" transform="translate(0 -1.56)"/><path class="cls-1" d="M0,223.26c54.89,1.56,105,21.18,158.76,29.13,50.15,7.41,99.78-5.22,149.47-11.27,101-12.3,200.07,3.86,301.21,6,101.58,2.11,202.61,13.28,303.9,2.58,93.51-9.88,184.05-13,277.84-5.54,54,4.33,108.27,6.82,162.36,2.74,82.31-6.2,163.7-23.62,246.46-23.6" transform="translate(0 -1.56)"/><path class="cls-1" d="M0,213.07c55.05,1.64,105,22.45,158.92,30.07,50.7,7.17,101.16-8.17,151.4-13.85,102-11.52,201.18,10.09,303.14,11.73,99.86,1.61,198.6,15.3,297.93,1.94,50.5-6.79,100.76-14.64,151.85-14.5,43.16.13,85.74,3.1,128.67,7.25,54.66,5.28,109.56,8.49,164.4,3.79,81.44-7,161.7-26.24,243.69-26.43" transform="translate(0 -1.56)"/><path class="cls-1" d="M0,203.28c55.19,1.72,105,23.71,159.05,31,51.3,6.9,102.86-11,153.77-16.27C416.25,207.36,515,234.7,618.16,236c51.49.63,102.93.37,154,7.37,46.44,6.35,91.08,1.41,137.14-6.25,50.34-8.38,100.46-18.16,151.7-18.17,44.25,0,87.83,4.07,131.75,9.06,55.42,6.31,111,10.45,166.72,5,80.44-7.9,159.39-29.13,240.52-29.67" transform="translate(0 -1.56)"/><path class="cls-1" d="M0,193.89c55.33,1.8,104.92,25,159.16,31.9,52,6.64,104.75-13.81,156.47-18.56,52-4.79,105.61-4.43,156.76,7a703.35,703.35,0,0,0,150.91,17.48c49.91.44,99.55.11,148.95,8.19,45.82,7.5,89.66,1,134.86-8,50.09-10.05,100.07-21.89,151.44-22.12,45.43-.2,90.18,5.18,135.14,11.06,56.26,7.37,112.62,12.62,169.27,6.25,79.35-8.92,156.83-32.19,237-33.2" transform="translate(0 -1.56)"/><path class="cls-1" d="M0,184.9c55.46,1.86,104.86,26.22,159.25,32.78C212,224,266.05,201.17,318.69,196.9c54.47-4.41,111.08-2.93,164.14,11.19,49.29,13.11,94.76,19.82,146,20.12,48.3.27,95.95,0,143.55,9.1,45.14,8.66,88.28.49,132.51-10,49.75-11.79,99.58-25.78,151.09-26.25,46.65-.42,92.72,6.38,138.74,13.17,57.13,8.43,114.33,15,172,7.6,78.2-10,154.08-35.4,233.34-36.94" transform="translate(0 -1.56)"/><path class="cls-1" d="M0,176.28c55.59,1.94,104.81,27.48,159.34,33.67,25.34,2.87,47.56-2.23,71.92-8.66,29.56-7.81,60.09-12.13,90.54-14.29,57-4,116.77-1.45,171.72,15.41,22,6.74,42.39,15.16,65.31,18.62,25,3.78,50.42,4.09,75.64,4.19,46.68.19,92.17-.11,138,10.05,44.42,9.86,87-.19,130.11-12,49.35-13.56,99-29.75,150.72-30.48,47.88-.67,95.38,7.66,142.46,15.35,58,9.46,116.12,17.46,174.76,9,77-11.14,151.22-38.67,229.52-40.8" transform="translate(0 -1.56)"/><path class="cls-1" d="M0,168c55.71,2,104.75,28.74,159.43,34.55,25.54,2.71,47.3-3.39,71.64-10.26,30.51-8.62,62.3-12.91,93.89-14.85,59.47-3.65,122.64-.12,179.32,19.64,21.47,7.49,41.12,17.06,63.76,21,23.76,4.17,48.08,4.47,72.13,4.49,45.11,0,88.37-.16,132.36,11,43.66,11.07,85.73-1,127.7-14.1,48.92-15.33,98.45-33.7,150.33-34.73,49.08-1,98.13,9,146.21,17.53,58.82,10.46,118,20,177.56,10.37,75.85-12.27,148.3-42,225.67-44.67" transform="translate(0 -1.56)"/><path class="cls-1" d="M0,160.17c55.84,2.08,104.7,30,159.52,35.43,25.75,2.55,47-4.55,71.35-11.87,31.41-9.45,64.48-13.7,97.16-15.43C390,165,456.49,169.54,514.83,192.11c21,8.14,39.89,18.93,62.24,23.43,22.56,4.55,45.78,4.82,68.7,4.75,43.62-.12,84.64-.2,126.88,11.93,42.89,12.31,84.57-1.75,125.32-16.1,48.46-17.05,97.87-37.6,150-38.89,50.24-1.25,100.86,10.26,149.9,19.66,59.57,11.41,119.84,22.57,180.32,11.73,74.69-13.38,145.37-45.21,221.86-48.45" transform="translate(0 -1.56)"/><path class="cls-1" d="M0,152.66C56,154.81,104.7,183.94,159.66,189c26,2.38,46.76-5.7,71-13.47C262.93,165.17,297.25,161,331,159.41c64.27-3,134.07,2.5,193.91,27.88,20.58,8.73,38.69,20.72,60.77,25.77,21.4,4.9,43.58,5.15,65.42,5,42.27-.32,81.08-.31,121.68,12.77,42.14,13.58,83.48-2.5,123-17.93,48-18.73,97.29-41.37,149.68-42.91,51.34-1.49,103.49,11.53,153.43,21.7,60.24,12.27,121.69,25,183,13,73.6-14.43,142.51-48.35,218.2-52.06" transform="translate(0 -1.56)"/><path class="cls-1" d="M0,145.49c56.09,2.23,104.65,32.58,159.75,37.24,26.18,2.22,46.46-6.82,70.67-15.09,33-11.26,68.47-15.45,103.1-16.86,66.43-2.7,139.46,3.61,200.57,31.75,20.18,9.3,37.55,22.46,59.39,28.06,20.31,5.22,41.53,5.44,62.37,5.16,41.09-.55,77.81-.5,116.92,13.52,41.45,14.85,82.42-3.15,120.83-19.55,47.55-20.29,96.78-44.94,149.51-46.66,52.35-1.71,105.93,12.7,156.7,23.58,60.81,13,123.46,27.38,185.41,14.25,72.6-15.38,139.8-51.31,214.78-55.4" transform="translate(0 -1.56)"/><path class="cls-1" d="M0,138.67c56.23,2.32,104.65,33.9,159.9,38.18,26.4,2.05,46.14-7.91,70.26-16.73,33.51-12.25,70.14-16.44,105.58-17.75,68.32-2.52,144.48,4.54,206.57,35.38,19.82,9.84,36.49,24.11,58.12,30.25,19.34,5.49,39.7,5.67,59.64,5.25,40.11-.86,75-.84,112.75,14.11,40.82,16.14,81.39-3.55,118.8-20.84,47.13-21.78,96.36-48.23,149.45-50.08,53.29-1.85,108.11,13.74,159.64,25.25,61.27,13.68,125.1,29.48,187.61,15.35,71.71-16.21,137.28-54.06,211.68-58.37" transform="translate(0 -1.56)"/><path class="cls-1" d="M0,132.18c56.37,2.42,104.67,35.25,160.09,39.16,26.61,1.88,45.79-9,69.77-18.39,33.87-13.32,71.51-17.55,107.61-18.81,69.91-2.45,149,5.24,211.76,38.69,19.51,10.39,35.51,25.69,57,32.33,18.53,5.73,38.14,5.84,57.33,5.24,39.33-1.24,72.62-1.37,109.31,14.51,40.31,17.45,80.32-3.65,116.94-21.72,46.85-23.12,96-51.19,149.59-53.08,54.11-1.92,109.92,14.59,162.12,26.65C1263.15,191,1328.08,208,1391,193.05c71-16.88,135-56.5,209-60.87" transform="translate(0 -1.56)"/><path class="cls-1" d="M0,126c56.53,2.54,104.73,36.63,160.31,40.18,26.83,1.71,45.41-9.93,69.21-20.07,34-14.49,72.53-18.81,109.1-20.08,71.11-2.48,153,5.68,216,41.62,19.23,11,34.6,27.2,56,34.28,17.89,5.92,36.9,5.93,55.5,5.1,38.78-1.72,70.93-2.12,106.77,14.7,40,18.75,79.2-3.33,115.31-22.13,46.68-24.3,95.85-53.72,149.93-55.57,54.82-1.87,111.28,15.23,164.08,27.74,61.86,14.65,127.72,32.66,191,17.05,70.41-17.36,133.13-58.59,206.81-62.82" transform="translate(0 -1.56)"/><path class="cls-1" d="M0,120.16c56.69,2.67,104.82,38,160.58,41.24,27,1.55,45-10.81,68.55-21.77,33.82-15.75,73.12-20.24,110-21.6,71.85-2.64,156.26,5.82,219,44.12,19,11.59,33.78,28.61,55.25,36.07,17.46,6.06,36,5.92,54.24,4.82,38.46-2.32,70-3.17,105.27,14.62,39.76,20.06,78-2.49,114-22,46.67-25.31,95.82-55.77,150.51-57.45,55.41-1.7,112.11,15.6,165.41,28.45,62,14.94,128.56,33.58,192.07,17.6,70-17.62,131.66-60.27,205.22-64.11" transform="translate(0 -1.56)"/><path class="cls-1" d="M0,114.62c56.79,2.86,105,39,160.87,42,27.18,1.43,44.7-11.33,67.95-23,33.48-16.76,73.25-21.4,110.14-22.84,72.08-2.82,158.09,5.81,220.36,45.64,18.86,12.07,33.3,29.54,54.91,37.21,17.28,6.13,35.65,5.85,53.68,4.52,38.38-2.83,69.83-4.09,104.88,14.38C812.57,233.47,849.92,211,886,191c46.8-25.91,95.94-56.84,151.11-58.37,55.75-1.56,112.36,15.52,166,28.49,62.05,15,129,33.71,192.6,17.75,69.87-17.53,130.77-61,204.31-64.28" transform="translate(0 -1.56)"/><path class="cls-1" d="M0,109.38c56.62,3.19,105.43,38.15,161.35,41.05,27,1.41,44.72-10.82,68.07-22.11,33.64-16.27,73.22-20.69,110.07-21.95,72.07-2.46,156.91,6.52,219.67,45.17,19,11.71,33.86,28.81,55.41,36.35,17.25,6,35.56,5.87,53.56,4.65,38.37-2.59,69.53-3.35,104.72,14.5,39.75,20.17,77.76-2.27,113.77-21.8,46.82-25.39,95.92-55.76,150.75-57.68,55.72-1.94,112.5,14.81,166.2,27.43,62.11,14.6,129.21,32.7,192.8,17.17,69.65-17,130.4-59.95,203.63-62.72" transform="translate(0 -1.56)"/><path class="cls-1" d="M0,104.43c56.59,3.46,106.19,37.11,162.26,39.9,26.93,1.33,44.84-10.37,68.32-21.34,33.75-15.77,73.1-19.95,109.87-21,72-2.06,155.6,7.29,218.73,44.79,19.15,11.38,34.38,28.08,55.86,35.46,17.24,5.92,35.47,5.85,53.44,4.73,38.31-2.4,69.23-2.72,104.53,14.5,39.78,19.42,78.42-2.8,114.47-21.86,46.91-24.81,96-54.51,150.51-56.73,55.67-2.27,112.53,14.14,166.27,26.43,62.13,14.21,129.31,31.74,192.85,16.6,69.41-16.53,130-58.92,202.89-61.27" transform="translate(0 -1.56)"/><path class="cls-1" d="M0,99.76c56.71,3.66,107.23,35.93,163.57,38.51,26.87,1.24,45.06-10,68.69-20.62,33.82-15.25,72.91-19.17,109.55-20C413.65,96,496,105.78,559.4,142.15c19.27,11.06,34.85,27.34,56.28,34.55,17.22,5.79,35.37,5.79,53.29,4.74,38.23-2.24,68.95-2.22,104.32,14.38,39.86,18.71,79.08-3.12,115.28-21.69C935.63,150,984.75,121.06,1039,118.6c55.59-2.52,112.44,13.5,166.19,25.48,62.11,13.85,129.32,30.83,192.77,16.07,69.15-16.1,129.53-58,202.1-59.95" transform="translate(0 -1.56)"/><path class="cls-1" d="M0,95.37c57,3.79,108.52,34.6,165.26,36.92,26.84,1.09,45.37-9.62,69.18-20,33.83-14.73,72.64-18.36,109.11-19,71.57-1.18,152.64,9,216.17,44.31,19.36,10.75,35.28,26.6,56.66,33.61,17.19,5.64,35.27,5.69,53.14,4.69,38.09-2.13,68.68-1.81,104.09,14.16,40,18,79.73-3.25,116.19-21.31,47.26-23.4,96.42-51.46,150.38-54.1,55.49-2.7,112.27,12.91,166,24.6,62,13.5,129.24,30,192.55,15.54,68.88-15.7,129-57.08,201.27-58.73" transform="translate(0 -1.56)"/><path class="cls-1" d="M0,91.24c57.38,3.87,110,32.87,167.3,35.13,26.81,1,45.82-9.36,69.78-19.42,33.81-14.18,72.3-17.52,108.56-17.87,71.25-.69,151,10,214.58,44.21,19.43,10.45,35.66,25.84,57,32.65,17.17,5.47,35.16,5.54,53,4.58,37.94-2.05,68.43-1.52,103.85,13.83,40.12,17.39,80.4-3.22,117.19-20.72,47.52-22.6,96.74-49.71,150.47-52.45,55.38-2.83,112,12.35,165.68,23.76,62,13.17,129.08,29.16,192.23,15,68.6-15.34,128.51-56.26,200.39-57.62" transform="translate(0 -1.56)"/><path class="cls-1" d="M0,87.38c57.87,3.87,111.78,31.49,169.67,33.14,26.87.77,46.25-9.11,70.48-18.9C273.93,88,312.07,85,348.08,84.88c70.86-.17,149.27,11,212.81,44.17,19.48,10.17,36,25.09,57.3,31.67,17.15,5.29,35.06,5.37,52.81,4.43,37.74-2,68.17-1.32,103.57,13.42,40.31,16.77,81.08-3,118.29-20C940.66,136.88,990,110.8,1043.51,108c55.24-2.89,111.63,11.83,165.27,23,61.83,12.86,128.82,28.41,191.79,14.57,68.29-15,127.93-55.51,199.46-56.62" transform="translate(0 -1.56)"/><path class="cls-1" d="M0,83.76c58.51,3.82,113.72,29.81,172.33,31,26.94.54,46.8-8.94,71.29-18.44,33.64-13.07,71.41-15.77,107.15-15.58,70.41.38,147.44,12.05,210.86,44.21,19.51,9.9,36.32,24.33,57.58,30.66,17.13,5.11,34.93,5.14,52.62,4.23,37.55-1.93,67.9-1.22,103.3,12.92,40.52,16.18,81.76-2.71,119.45-19,48.13-20.81,97.58-45.79,150.91-48.59,55.09-2.9,111.2,11.34,164.75,22.26,61.68,12.56,128.5,27.69,191.25,14.1,68-14.72,127.34-54.82,198.51-55.71" transform="translate(0 -1.56)"/><path class="cls-1" d="M0,80.38c59.26,3.73,115.84,28,175.28,28.7,27,.31,47.41-8.81,72.17-18C281,78.55,318.37,76.2,353.79,76.68c69.9.94,145.54,13.14,208.75,44.31,19.54,9.63,36.61,23.56,57.83,29.64,17.11,4.9,34.81,4.9,52.43,4,37.32-2,67.67-1.2,103,12.34,40.78,15.61,82.46-2.27,120.7-17.91,48.48-19.82,98.08-43.64,151.25-46.4,54.93-2.86,110.69,10.9,164.15,21.58,61.48,12.29,128.11,27,190.61,13.66C1470.18,123.42,1529.22,83.7,1600,83" transform="translate(0 -1.56)"/><path class="cls-1" d="M0,77.24c60.13,3.57,118.13,26.13,178.47,26.25,27.13.06,48.09-8.73,73.13-17.67C285,73.91,321.94,71.91,357,72.69c69.33,1.54,143.56,14.26,206.5,44.47,19.56,9.38,36.87,22.8,58.05,28.6,17.08,4.69,34.7,4.65,52.24,3.7,37.06-2,67.44-1.25,102.69,11.68,41.06,15.07,83.17-1.72,122-16.66,48.84-18.78,98.62-41.37,151.66-44.06,54.75-2.77,110.12,10.49,163.45,21,61.27,12,127.67,26.39,189.9,13.24C1470.87,120.39,1529.59,81,1600,80.45" transform="translate(0 -1.56)"/><path class="cls-1" d="M0,74.32C61.13,77.69,120.59,98.47,181.92,98c27.27-.2,48.82-8.69,74.16-17.35,33.17-11.32,69.69-13,104.41-11.86C429.2,70.94,502,84.21,564.62,113.47c19.56,9.14,37.11,22,58.24,27.55,17,4.46,34.58,4.36,52,3.38,36.8-2.08,67.22-1.39,102.37,11,41.39,14.54,83.9-1.1,123.39-15.29,49.22-17.69,99.19-39,152.13-41.58,54.55-2.65,109.49,10.1,162.68,20.37,61,11.78,127.16,25.81,189.1,12.84,67-14,125.38-53.09,195.46-53.53" transform="translate(0 -1.56)"/><path class="cls-1" d="M0,71.61c62.16,3.13,123.11,22.1,185.51,21,27.42-.48,49.59-8.71,75.25-17.07,33-10.73,69-12,103.36-10.57,68,2.78,139.41,16.6,201.64,44.94,19.56,8.91,37.32,21.25,58.42,26.48,17,4.23,34.45,4.06,51.83,3,36.52-2.18,67-1.58,102.05,10.2,41.74,14,84.63-.4,124.8-13.81,49.62-16.55,99.8-36.56,152.66-39,54.33-2.48,108.82,9.75,161.85,19.83,60.74,11.55,126.6,25.27,188.22,12.46,66.67-13.86,124.7-52.63,194.41-53" transform="translate(0 -1.56)"/><path class="cls-1" d="M0,69.12C63.34,72,125.8,89.08,189.34,87.34c27.59-.75,50.4-8.76,76.4-16.81,32.72-10.14,68.33-11,102.25-9.26,67.32,3.44,137.25,17.81,199,45.24,38.38,17,67.29,30.77,110.2,28.05,36.24-2.29,66.78-1.83,101.71,9.38,42.13,13.52,85.39.35,126.28-12.22,50-15.38,100.42-34,153.24-36.27,54.09-2.28,108.09,9.44,160.94,19.34,60.46,11.34,126,24.76,187.3,12.09,66.32-13.71,124-52.2,193.33-52.49" transform="translate(0 -1.56)"/><path class="cls-1" d="M0,66.83C64.55,69.34,128.55,84.6,193.28,82.19c27.79-1,51.25-8.86,77.6-16.6,32.46-9.53,67.6-10,101.1-7.93,66.56,4.11,135,19,196.36,45.58,38.21,16.54,67.7,29.43,110.13,26.57,35.95-2.43,66.56-2.14,101.36,8.51,42.55,13,86.17,1.15,127.79-10.55C958,113.61,1008.69,96.33,1061.48,94.3c53.84-2.06,107.34,9.14,160,18.89,60.14,11.13,125.37,24.29,186.31,11.74,66-13.59,123.27-51.83,192.25-52.08" transform="translate(0 -1.56)"/><path class="cls-1" d="M0,64.72c65.81,2.16,131.35,15.53,197.32,12.43,28-1.32,52.11-9,78.83-16.39,32.2-8.93,66.85-9,99.91-6.58C441.85,59,508.89,74.46,569.7,100.12c38,16.06,68.1,28.07,110,25,35.65-2.57,66.35-2.49,101,7.61,43,12.53,87,2,129.33-8.8,50.81-12.93,101.73-28.81,154.52-30.6,53.57-1.82,106.56,8.88,159,18.47,59.83,10.94,124.71,23.86,185.29,11.4,65.62-13.49,122.54-51.49,191.16-51.72" transform="translate(0 -1.56)"/><path class="cls-1" d="M0,62.8c67.14,1.77,134.24,13.25,201.48,9.44,28.24-1.6,53-9.15,80.1-16.21,31.92-8.32,66.08-8,98.7-5.22A651,651,0,0,1,571.1,97.14C609,112.72,639.57,123.85,681,120.65c35.36-2.72,66.14-2.87,100.65,6.68,43.49,12,87.78,2.83,130.9-7,51.2-11.67,102.39-26.11,155.21-27.66,53.29-1.56,105.75,8.64,157.94,18.08,59.48,10.77,124,23.47,184.22,11.1,65.27-13.42,121.8-51.21,190.07-51.44" transform="translate(0 -1.56)"/><path class="cls-1" d="M0,61.06C68.55,62.42,137.19,72,205.76,67.46c28.47-1.88,53.9-9.33,81.38-16,31.62-7.72,65.29-7,97.45-3.85,64.05,6.19,128.25,22.8,187.94,46.74,37.69,15.12,68.83,25.33,109.83,22,35.07-2.89,65.93-3.28,100.29,5.74,44,11.55,88.62,3.67,132.49-5.16,51.57-10.39,103.05-23.4,155.91-24.68s104.94,8.42,156.87,17.73c59.14,10.6,123.31,23.1,183.12,10.8,64.93-13.36,121.07-51,189-51.22" transform="translate(0 -1.56)"/><path class="cls-1" d="M0,59.48c69.93.93,140.11,8.58,210,3.34,28.72-2.15,54.8-9.54,82.68-15.88,31.32-7.11,64.49-5.93,96.19-2.47,63.16,6.9,126,24.07,185.07,47.16,37.51,14.65,69.17,24,109.71,20.39,34.78-3.06,65.72-3.73,99.92,4.77,44.54,11.06,89.48,4.51,134.1-3.3,51.93-9.08,103.69-20.66,156.63-21.67,52.67-1,104.11,8.24,155.77,17.42,58.78,10.45,122.58,22.77,182,10.52,64.59-13.32,120.34-50.74,187.91-51" transform="translate(0 -1.56)"/><path class="cls-1" d="M0,58.05c71.37.49,143.06,6.24,214.33.28,29-2.42,55.72-9.78,84-15.72,31-6.52,63.69-4.92,94.93-1.09,62.24,7.61,123.66,25.33,182.17,47.57,37.34,14.2,69.49,22.58,109.59,18.82,34.5-3.23,65.51-4.17,99.56,3.8,45.08,10.56,90.36,5.35,135.71-1.41,52.27-7.8,104.33-17.92,157.35-18.65,52.35-.72,103.28,8.08,154.65,17.14,58.43,10.3,121.85,22.46,180.88,10.25,64.25-13.29,119.6-50.56,186.84-50.92" transform="translate(0 -1.56)"/><path class="cls-1" d="M0,56.78c72.82,0,146,3.88,218.64-2.79,29.26-2.69,56.62-10,85.3-15.57,30.71-5.92,62.88-3.89,93.66.29C458.94,47,519,65.31,576.92,86.71c37.16,13.74,69.8,21.19,109.47,17.25,34.21-3.41,65.3-4.64,99.19,2.83,45.63,10,91.27,6.17,137.31.47,52.6-6.51,104.95-15.18,158.08-15.63,52-.43,102.46,7.93,153.53,16.88,58.06,10.17,121.1,22.19,179.74,10,63.92-13.28,118.88-50.4,185.79-50.83" transform="translate(0 -1.56)"/><path class="cls-1" d="M0,55.65C74.3,55.22,148.94,57.19,223,49.8c29.54-2.94,57.52-10.3,86.6-15.4C340,29.07,371.64,31.52,402,36.06c60.36,9,119.11,27.85,176.41,48.42,37,13.28,70.1,19.81,109.35,15.68,33.95-3.58,65.1-5.09,98.83,1.87,46.19,9.53,92.21,7,138.91,2.33,52.9-5.23,105.55-12.45,158.8-12.61,51.66-.16,101.64,7.8,152.4,16.64,57.7,10.06,120.36,22,178.62,9.77,63.59-13.28,118.16-50.27,184.75-50.79" transform="translate(0 -1.56)"/><path class="cls-1" d="M0,54.66c75.71-.89,151.78-.8,227.15-8.88C257,42.59,285.59,35.2,315.07,30.55c30.1-4.75,61.29-1.88,91.17,3C465.63,43.34,523.1,62.69,579.8,82.4,616.64,95.21,650.19,100.84,689,96.53c33.68-3.74,64.89-5.54,98.47.92,46.75,9,93.17,7.71,140.5,4.17,53.17-4,106.11-9.76,159.49-9.64,51.32.11,100.84,7.69,151.29,16.44,57.34,9.94,119.63,21.72,177.5,9.55,63.27-13.3,117.46-50.17,183.74-50.79" transform="translate(0 -1.56)"/><path class="cls-1" d="M0,53.78c77.14-1.33,154.59-3.1,231.3-11.85,30.09-3.44,59.28-10.86,89.15-15S381,26,410.43,31.27C468.85,41.74,525.1,61.6,581.19,80.47c36.7,12.35,70.68,17.08,109.15,12.6,33.42-3.9,64.69-6,98.11,0,47.3,8.45,94.15,8.42,142.07,6,53.41-2.74,106.64-7.11,160.17-6.72,51,.37,100,7.6,150.18,16.26,57,9.84,118.91,21.52,176.4,9.35,63-13.33,116.77-50.09,182.76-50.81" transform="translate(0 -1.56)"/><path class="cls-1" d="M0,53c78.54-1.77,157.33-5.37,235.35-14.78,30.36-3.66,60.12-11.14,90.38-14.84,29.5-3.62,59.77.1,88.77,5.73,92.59,18,181,72.35,277.07,60.65,33.19-4.05,64.5-6.39,97.76-.9C837.2,96.79,884.52,98,933,96.59c53.64-1.54,107.14-4.56,160.82-3.86,50.62.66,99.29,7.52,149.1,16.09,56.65,9.75,118.2,21.35,175.32,9.17,62.67-13.36,116.12-50,181.82-50.86" transform="translate(0 -1.56)"/><path class="cls-1" d="M0,52.38c79.9-2.18,160-7.59,239.27-17.63,30.63-3.88,60.95-11.41,91.57-14.61,29.22-3.06,59,1.07,87.62,7.06C510.36,46.48,597,98.84,692.83,86.69c81-10.27,160.91,8.15,242.53,7.6,53.83-.36,107.6-2,161.44-1.07,50.26.88,98.54,7.45,148,16,56.31,9.66,117.52,21.19,174.29,9,62.37-13.4,115.47-50,180.9-50.93" transform="translate(0 -1.56)"/><path class="cls-1" d="M0,51.83c81.22-2.56,162.5-9.75,243-20.39,30.88-4.08,61.73-11.66,92.7-14.36,29-2.52,58.35,2,86.53,8.38C513.53,46,598.32,96.34,694,83.79,775.48,73.1,855.75,91,937.67,92.14c104.3,1.49,205.9-.21,309,17.45,56,9.58,116.87,21.06,173.3,8.83,62.1-13.45,114.86-49.94,180-51" transform="translate(0 -1.56)"/><path class="cls-1" d="M0,51.37c82.48-2.9,164.9-11.84,246.63-23,31.12-4.27,62.49-11.9,93.78-14.07,28.7-2,57.7,2.95,85.5,9.66C516.62,45.81,599.56,94,695.15,81.09,777.06,70,857.64,87.33,939.89,90.15c103.82,3.55,205.9,2.39,308.58,19.91,55.7,9.5,116.24,20.95,172.35,8.69,61.85-13.5,114.28-49.92,179.21-51.13" transform="translate(0 -1.56)"/><path class="cls-1" d="M0,51C83.7,47.78,167.2,37.13,250,25.39,281.39,21,313.25,13.3,344.85,11.65c28.46-1.48,57.08,3.86,84.52,10.93,90.22,23.22,171.33,69.22,266.85,56C778.62,67.19,859.4,83.91,942,88.3c103.4,5.5,205.83,4.84,308.12,22.27,55.43,9.44,115.66,20.85,171.47,8.56,61.61-13.56,113.74-49.9,178.44-51.24" transform="translate(0 -1.56)"/><path class="cls-1" d="M0,50.7c84.79-3.47,169.28-15.81,253.17-28C284.75,18.08,317.07,10.42,349,9.3c28.25-1,56.51,4.75,83.62,12.16,52.7,14.41,102.81,37.08,155.7,50.79,36.08,9.35,72.29,9.22,109,4.06C780.12,64.64,861,80.7,944,86.6c103,7.33,205.68,7.15,307.66,24.5,55.16,9.38,115.12,20.76,170.65,8.44,61.39-13.61,113.22-49.88,177.72-51.35" transform="translate(0 -1.56)"/><path class="cls-1" d="M0,50.47C85.86,46.79,171.24,32.82,256.1,20.16c31.75-4.73,64.48-12.37,96.62-12.95,28-.52,56,5.6,82.79,13.35,51.83,15,101.15,38.07,153.63,50.89,36,8.8,72.54,8,109,2.8,83.39-11.87,164.38,3.47,247.72,10.8,102.67,9,205.46,9.3,307.18,26.58C1308,121,1367.69,132.32,1423,120c61.18-13.67,112.75-49.87,177-51.47" transform="translate(0 -1.56)"/><path class="cls-1" d="M0,50.29C86.8,46.48,173,30.91,258.72,17.87c63.55-9.66,117.06-17,179.46,2,51,15.55,99.6,39,151.71,50.91,36,8.23,72.79,6.8,109.11,1.61,83.88-12,164.89,2.55,248.6,11.22,102.37,10.61,205.18,11.28,306.71,28.5,54.72,9.28,114.21,20.64,169.27,8.25,61-13.72,112.32-49.85,176.45-51.57" transform="translate(0 -1.56)"/><path class="cls-1" d="M0,50.17c87.61-3.88,174.49-21,261-34.37,32.1-5,65.52-12.42,98.09-12,27.75.38,55.14,7.23,81.42,15.64,50.21,16.09,98.19,39.89,150,50.87,36,7.64,73,5.64,109.26.48,84.34-12,165.36,1.64,249.41,11.56,102.1,12.06,204.86,13.08,306.23,30.24,54.55,9.24,113.84,20.6,168.71,8.17C1484.94,107,1536.05,71,1600,69.12" transform="translate(0 -1.56)"/><path class="cls-1" d="M0,50.09C88.37,46.22,175.84,27.58,263,14c32.25-5,65.93-12.33,98.68-11.38,27.64.8,54.8,8,80.88,16.73C492.05,35.88,539.48,60,591,70c36,7,73.31,4.51,109.44-.58,84.77-11.92,165.79.73,250.16,11.81,101.86,13.38,204.49,14.67,305.74,31.78,54.4,9.19,113.54,20.56,168.25,8.11,60.69-13.82,111.61-49.79,175.46-51.76" transform="translate(0 -1.56)"/><path class="cls-1" d="M0,50C89,46.27,176.93,26.16,264.64,12.34c64-10.09,117.7-14.6,179.61,7C493.06,36.42,540,60.82,591.31,69.9c36.1,6.4,73.56,3.42,109.67-1.55,85.16-11.71,166.17-.17,250.82,12,101.65,14.56,204.09,16,305.25,33.1,54.3,9.16,113.32,20.54,167.91,8,60.57-13.85,111.34-49.74,175.07-51.82" transform="translate(0 -1.56)"/><path class="cls-1" d="M0,50c89.4-3.56,177.73-25.1,265.86-39C330.05.82,383.85-2.67,445.54,19.7c48.23,17.49,94.8,42.12,145.93,50.24,36.18,5.75,73.83,2.37,110-2.44,85.49-11.38,166.51-1.07,251.4,12,101.46,15.61,203.68,17.2,304.76,34.2,54.23,9.11,113.17,20.52,167.67,8C1485.75,107.81,1536.38,72,1600,69.83" transform="translate(0 -1.56)"/><path class="cls-1" d="M0,50c89.72-3.24,178.3-26.17,266.7-40.16C331-.33,385-2.75,446.43,20.3c47.73,17.9,94,42.72,145,49.85,36.3,5.07,74.1,1.36,110.29-3.24C787.53,56,868.56,65,953.66,78.82c54.18,8.84,108.77,18.62,163.78,20,47.61,1.21,93.55,7.15,140.48,15,54.2,9.08,113.1,20.51,167.57,8,60.42-13.91,111-49.61,174.54-51.89" transform="translate(0 -1.56)"/><path class="cls-1" d="M0,50c89.88-2.81,178.59-27.08,267.1-41C331.42-1.18,385.71-2.46,446.89,21.18c47.32,18.28,93.34,43.23,144.38,49.36,36.44,4.37,74.37.38,110.68-4C788,56.35,869,63.74,954.26,78.3c54.1,9.24,108.41,19.32,163.41,20.66,47.56,1.16,93.48,7.12,140.36,14.94,54.22,9,113.12,20.51,167.59,8C1486,108,1536.49,72.36,1600,70" transform="translate(0 -1.56)"/></g></g></svg>