<svg xmlns="http://www.w3.org/2000/svg" viewBox="0 0 1600.05 326.3"><defs><style>.cls-1{fill:none;stroke:#5bc0be;stroke-miterlimit:10;}</style></defs><title>Ресурс 2</title><g id="Слой_2" data-name="Слой 2"><g id="Слой_2-2" data-name="Слой 2"><path class="cls-1" d="M0,326.5q607.83.48,1215.65,0,192.18,0,384.35,0" transform="translate(0 -0.85)"/><path class="cls-1" d="M0,311.77c114.46,1.4,228.78-5.37,343.28-2.32,99.14,2.64,198.13,2.7,297.29,3.34,192.85,1.23,385.74.4,578.59-.27,126.94-.44,253.9-1,380.84-.75" transform="translate(0 -0.85)"/><path class="cls-1" d="M0,297.52c114.32.64,226.94-15.8,341.46-7.1,98.32,7.46,195.64,9,294.2,10.65,197.2,3.24,394.59.74,591.8-.95,124.16-1.06,248.39-2.72,372.54-2.6" transform="translate(0 -0.85)"/><path class="cls-1" d="M0,283.76c60.87-.67,120.64-11.07,181.08-17a651.44,651.44,0,0,1,157.79,3.71c45.47,6.56,90.58,15.44,136.59,17.3,51.16,2.08,102.53,1.45,153.73,2.87,202.93,5.64,406.26,1,609.23-1.85,120.48-1.68,241.11-4.82,361.58-5.05" transform="translate(0 -0.85)"/><path class="cls-1" d="M0,270.48c61.63-1.81,121.2-16.5,182-25.25,52.59-7.57,102.37-6.06,154.18,5.56,42.78,9.6,84.74,22.27,128.7,25.47,52.24,3.81,105.2,2.6,157.58,4.62,208.91,8,418.46,1.11,627.44-2.8,116.63-2.18,233.52-7,350.13-7.6" transform="translate(0 -0.85)"/><path class="cls-1" d="M0,257.66c62.41-2.59,121.68-21.17,182.75-32.38,52.26-9.59,100.29-8.36,151.15,7.13,40.43,12.32,79.38,28.4,121.83,32.61,53.09,5.26,107.57,3.5,160.92,6,214,10.12,428.88,1.19,643-3.61,69.19-1.55,138.54-1.07,207.69-3.54,44.3-1.58,88.28-5.91,132.65-6.24" transform="translate(0 -0.85)"/><path class="cls-1" d="M0,245.3c63.08-2.48,122-24.12,183.24-36.94C235,197.54,283,198.22,332.78,216.48c38.87,14.26,75.51,32.86,117.26,37.34,53.7,5.77,109.09,3.78,163.11,6.65,217.07,11.56,435.26,1.3,652.49-4.08,70.53-1.74,141.33-1,211.8-4,41-1.75,81.45-6.82,122.58-7.11" transform="translate(0 -0.85)"/><path class="cls-1" d="M0,233.38c113.91-4,218.65-72.63,332.48-29.37,38.76,14.73,75.09,34.16,117,38.42,53.84,5.46,109.21,3.73,163.32,6.46,217.46,11,435.88,1.5,653.48-4.07,70.77-1.81,141.85-.79,212.55-3.85,40.59-1.76,80.38-7.61,121.16-7.59" transform="translate(0 -0.85)"/><path class="cls-1" d="M0,221.91c113.68-4.67,218.12-70.45,331.67-28.34,39.56,14.67,77,34.23,119.61,38.56,53.75,5.46,109.07,3.72,163.08,5.79,216.68,8.33,433.79,2.33,650.53-3.34,70.56-1.85,141.58-.39,212-3.77,41.35-2,81.44-9.25,123.07-8.9" transform="translate(0 -0.85)"/><path class="cls-1" d="M0,210.88c61.79-2.7,119.56-22.76,179.72-34.88,52.55-10.59,100.34-9.66,150.91,8.49,40.81,14.63,79.84,34.35,123.55,38.77,53.74,5.44,109.1,3.29,163.1,4.49q322.5,7.16,645-1.91c70.31-1.9,141.35.17,211.52-3.9,42.54-2.47,83.25-11.59,126.2-11.06" transform="translate(0 -0.85)"/><path class="cls-1" d="M0,200.26c60.71-2.63,117.72-21.31,177-32.67,53.22-10.21,101.14-8.65,152.42,9,42.45,14.64,83.42,34.52,128.64,39.06,53.8,5.39,109.3,2.51,163.32,2.64,212.59.5,424.72,6.08,637.29.13,70-2,141.17.81,210.95-4.23,44.13-3.19,85.71-14.49,130.4-14" transform="translate(0 -0.85)"/><path class="cls-1" d="M0,190.07c59.42-2.42,115.51-19.57,173.67-30,53.94-9.68,102.29-7.4,154.33,9.79,44.43,14.67,87.63,34.72,134.69,39.39,53.93,5.35,109.64,1.44,163.73.34,98.63-2,197.32-3.54,295.83,2.45,110.73,6.73,221.08,3.45,331.91.23,69.62-2,141,1.48,210.37-4.73,46-4.11,88.7-17.84,135.47-17.45" transform="translate(0 -0.85)"/><path class="cls-1" d="M0,180.28c58-2.09,113-17.58,169.89-27,54.65-9,103.8-6.05,156.58,10.7C373.12,178.79,418.86,199,468,203.76c54.13,5.31,110.1.15,164.29-2.32,97.47-4.43,194.25-7.5,291.48,2.21,108.51,10.83,216.36,6.74,325.23,3.42,69.22-2.1,141,2.12,209.76-5.34,48.13-5.22,92.14-21.56,141.26-21.45" transform="translate(0 -0.85)"/><path class="cls-1" d="M0,170.89c56.37-1.68,110.26-15.4,165.76-23.66S271.25,142.72,324.86,159c49.08,14.87,97.46,35.2,148.93,40.18,54.39,5.26,110.64-1.34,165-5.27,96.43-7,190.7-12.13,286.67,2,106,15.55,211.09,10.34,317.89,6.94,39.27-1.25,78.55-2.53,117.84-3.3,30.33-.6,61.16,1.1,91.31-2.76,50.42-6.45,95.92-25.52,147.57-25.82" transform="translate(0 -0.85)"/><path class="cls-1" d="M0,161.9c54.71-1.24,107.36-13.11,161.39-20.16,56.25-7.34,107.31-2.91,161.75,12.86,51.67,15,102.8,35.46,156.74,40.6,54.72,5.22,111.27-2.94,165.7-8.39,95.43-9.56,186.93-17.5,281.55,1.69,103.1,20.9,205.45,14.18,310.09,10.68,38.88-1.3,77.76-2.62,116.65-3.43,30.55-.63,61.59,1.06,91.89-3.41,52.81-7.79,99.94-29.64,154.24-30.44" transform="translate(0 -0.85)"/><path class="cls-1" d="M0,153.28c53-.76,104.39-10.75,156.89-16.54,57.07-6.3,109.22-1.31,164.51,14,54.31,15.06,108.28,35.86,164.78,41.05,55.13,5.07,111.88-4.61,166.47-11.63C747,168.06,836,156.6,929,181.61c99.78,26.83,199.64,18.12,302.06,14.54,38.47-1.35,76.94-2.72,115.43-3.56,30.78-.67,62,1,92.49-4.1,55.23-9.19,104.1-33.82,161.09-35.21" transform="translate(0 -0.85)"/><path class="cls-1" d="M0,145c51.3-.31,101.42-8.37,152.38-12.92,57.88-5.16,111.13.26,167.28,15.2,57,15.17,113.75,36.13,172.83,41.5,55.56,5,112.56-6.29,167.26-14.88,53.37-8.37,107.52-18.89,161.7-19.47,38-.4,73.57,8.34,109.28,20.63S1001,197.37,1039,198.41c61.77,1.7,124.1-2.64,185.8-4.89,38.06-1.4,76.13-2.82,114.21-3.69,31-.72,62.44.84,93.1-4.8,57.63-10.6,108.28-38,167.94-40" transform="translate(0 -0.85)"/><path class="cls-1" d="M0,137.17c49.66.09,98.52-6,148-9.37,58.67-3.94,113,1.73,170,16.34,59.62,15.27,119.09,36.39,180.73,41.93,56,5,113.2-7.93,168-18,53.21-9.82,107.68-22.52,162-23.24,36.84-.5,70.36,9.64,103.78,24.14s65.4,25.87,102.15,27.23c61.06,2.26,123-2.7,184-5,37.67-1.44,75.34-2.91,113-3.82,31.29-.75,62.84.71,93.68-5.46,59.95-12,112.37-42,174.62-44.67" transform="translate(0 -0.85)"/><path class="cls-1" d="M0,129.66c48.11.43,95.75-3.85,143.75-6,59.43-2.66,114.71,3.08,172.54,17.4,62.14,15.38,124.21,36.65,188.28,42.35,56.47,5,113.81-9.46,168.71-21,53-11.21,107.83-26,162.31-26.84,35.88-.56,67.44,10.77,98.57,27.47s60.59,29.32,96.37,31c60.39,2.77,122-2.76,182.39-5.17,37.3-1.48,74.6-3,111.91-3.93,31.54-.8,63.21.57,94.23-6.09,62.12-13.33,116.25-45.92,180.94-49.12" transform="translate(0 -0.85)"/><path class="cls-1" d="M0,122.49c46.7.7,93.2-1.81,139.86-2.86C200,118.26,256.12,123.9,314.75,138c64.48,15.49,128.94,36.89,195.3,42.74,56.92,5,114.32-10.83,169.29-23.81,52.83-12.47,107.95-29.19,162.6-30.14,35.18-.62,64.9,11.68,93.79,30.53s55.94,32.52,91,34.4c59.78,3.2,121.19-2.82,180.92-5.29,37-1.53,73.91-3.08,110.89-4,31.76-.83,63.52.46,94.7-6.62,64.11-14.56,119.81-49.54,186.74-53.25" transform="translate(0 -0.85)"/><path class="cls-1" d="M0,115.67c45.48.85,90.92,0,136.39-.09,60.76-.11,117.54,5.28,176.9,19.16,66.58,15.57,133.19,37.1,201.59,43.08,57.36,5,114.73-12,169.75-26.22,52.65-13.62,108-32,162.84-33.06,34.78-.66,62.82,12.32,89.61,33.22,26.61,20.77,51.61,35.38,86.34,37.43,59.26,3.5,120.45-2.88,179.67-5.41,36.65-1.57,73.31-3.16,110-4.15,31.94-.85,63.78.39,95.08-7C1474,157,1531.12,119.73,1600,115.67" transform="translate(0 -0.85)"/><path class="cls-1" d="M0,109.18c105,2.09,209-1.53,312,22,68.38,15.64,136.84,37.27,207,43.38,57.74,5,115-12.88,170-28.2,80.76-22.49,178.78-64.52,249.21-.06,24.69,22.59,47.79,37.82,82.42,40,58.89,3.63,119.86-2.94,178.71-5.52,36.41-1.6,72.82-3.23,109.25-4.23,32.06-.88,64,.36,95.34-7.34,67.26-16.53,125.51-55.77,196.06-60" transform="translate(0 -0.85)"/><path class="cls-1" d="M0,103c104.05,1.87,209.05,1.33,310.91,24.22,69.8,15.69,139.73,37.41,211.26,43.62,58.06,5,115.06-13.44,170.12-29.68,78.1-23,180.9-69.37,246.81-.25,23.08,24.21,44.65,39.77,79.43,41.89,58.7,3.56,119.44-3,178.09-5.63,36.22-1.63,72.45-3.28,108.7-4.29,32.11-.9,64.05.42,95.45-7.47C1469.11,148.24,1528.22,107.2,1600,103" transform="translate(0 -0.85)"/><path class="cls-1" d="M0,97.16c103.27,1.27,209.12,3.14,310,25.53,70.79,15.72,141.78,37.49,214.27,43.79,58.28,5.06,114.91-13.62,169.95-30.55,75.83-23.31,183.29-73,245.4-.42,21.93,25.61,42.39,41.15,77.56,43.1,58.71,3.26,119.21-3,177.86-5.71,36.11-1.66,72.22-3.33,108.35-4.34,32.09-.9,64.06.58,95.42-7.4,68.94-17.55,128.56-60.16,201.16-64" transform="translate(0 -0.85)"/><path class="cls-1" d="M0,91.62c102.77.57,209.21,3.75,309.52,25.86,71.24,15.7,142.71,37.49,215.62,43.84,58.36,5.09,114.62-13.45,169.63-30.73,74.5-23.41,185-74.64,245.07-.53,21.43,26.44,41.42,41.74,77,43.47,58.87,2.86,119.26-3.22,178.05-6,36.08-1.69,72.17-3.39,108.28-4.45,32-.94,64,.7,95.27-7.23,69-17.52,128.79-61,201.59-64.26" transform="translate(0 -0.85)"/><path class="cls-1" d="M0,86.38C103,87.25,209.18,90,309.8,112.14c71.22,15.67,142.65,37.37,215.53,43.77,58.26,5.11,114.6-13.45,169.54-30.66,75.21-23.56,183.62-73.64,244.94-.53,21.65,25.81,42,41.45,77.25,43.23,58.79,3,119.51-3.88,178.23-6.77,36.1-1.77,72.2-3.55,108.32-4.83,31.93-1.12,64.15.33,95.37-7.38,68.84-17,128.59-59.69,201-62.59" transform="translate(0 -0.85)"/><path class="cls-1" d="M0,81.43c103.39,1.12,209.3,3.31,310.36,25.5,71.18,15.62,142.58,37.23,215.41,43.65,58.08,5.12,114.38-13.37,169.17-30.46,76-23.71,182-72.34,244.78-.62,22,25.14,42.88,41,77.78,42.76,58.7,3,119.66-4.38,178.29-7.32,36.08-1.81,72.16-3.63,108.26-5.07,31.88-1.27,64.25,0,95.44-7.47,68.63-16.5,128.4-58.39,200.51-61" transform="translate(0 -0.85)"/><path class="cls-1" d="M0,76.76c103.86,1.31,209.63,2.84,311.24,25.08,71.14,15.57,142.47,37.07,215.25,43.5,57.82,5.11,114-13.21,168.56-30.16,76.75-23.83,180.14-70.73,244.59-.77,22.48,24.4,43.92,40.26,78.56,42.07,58.58,3.07,119.67-4.73,178.2-7.66,36-1.8,72.08-3.62,108.13-5.17,31.83-1.36,64.29-.2,95.46-7.5,68.43-16,128.23-57.1,200-59.39" transform="translate(0 -0.85)"/><path class="cls-1" d="M0,72.37c104.43,1.44,210.14,2.2,312.39,24.5,71.08,15.51,142.36,36.9,215.06,43.33,57.51,5.08,113.42-13,167.74-29.77,77.53-23.94,178.11-68.83,244.34-1,23.07,23.63,45.16,39.41,79.57,41.2,58.46,3.05,119.57-4.94,178-7.79q54-2.64,107.92-5.14c31.79-1.42,64.31-.37,95.46-7.47,68.24-15.54,128.06-55.85,199.53-57.86" transform="translate(0 -0.85)"/><path class="cls-1" d="M0,68.24C105.1,69.76,210.83,69.66,313.83,92c71,15.43,142.21,36.71,214.83,43.11,57.13,5,112.7-12.7,166.7-29.27,78.33-24,175.95-66.67,244.07-1.3,23.75,22.79,46.57,38.38,80.79,40.14,58.33,3,119.35-5,177.67-7.73q53.82-2.51,107.64-5c31.74-1.45,64.29-.48,95.42-7.39C1469,109.54,1528.86,70,1600,68.24" transform="translate(0 -0.85)"/><path class="cls-1" d="M0,64.38c105.83,1.54,211.64.49,315.46,23,70.94,15.35,142.06,36.5,214.59,42.88,56.68,5,111.83-12.36,165.46-28.69,79.12-24.09,173.7-64.26,243.77-1.66,24.51,21.9,48.12,37.2,82.2,38.9,58.2,2.9,119-5,177.25-7.48q53.64-2.31,107.28-4.7c31.69-1.44,64.24-.55,95.35-7.26,67.87-14.65,127.77-53.45,198.64-54.94" transform="translate(0 -0.85)"/><path class="cls-1" d="M0,60.76c106.64,1.53,212.61-.56,317.35,22C388.22,98,459.24,119,531.67,125.38c56.18,4.92,110.83-12,164-28,79.89-24.12,171.41-61.62,243.44-2.07,25.34,21,49.8,35.87,83.8,37.5,58.07,2.78,118.62-4.8,176.72-7.05,35.62-1.38,71.25-2.76,106.86-4.33,31.64-1.39,64.18-.55,95.25-7.08C1469.49,100.08,1529.43,62,1600,60.76" transform="translate(0 -0.85)"/><path class="cls-1" d="M0,57.38c107.53,1.47,213.71-1.71,319.43,20.94,70.76,15.16,141.69,36,214,42.33,55.63,4.84,109.71-11.53,162.46-27.31C776.53,69.23,865,34.56,939,90.81c26.22,19.94,51.58,34.41,85.55,36,57.93,2.63,118.12-4.52,176.1-6.46,65.56-2.19,137.12,2.47,201.52-10.71C1469.71,95.77,1529.7,58.44,1600,57.38" transform="translate(0 -0.85)"/><path class="cls-1" d="M0,54.24C108.5,55.6,215,51.26,321.72,74,392.38,89.07,463.2,109.8,535.4,116c55,4.76,108.48-11.05,160.72-26.52,81.29-24.06,166.92-55.78,242.7-3,27.16,18.9,53.48,32.84,87.48,34.28,57.78,2.46,117.54-4.15,175.39-5.72,65.38-1.78,136.54,2.94,200.84-9.88,67.38-13.43,127.43-50,197.49-50.91" transform="translate(0 -0.85)"/><path class="cls-1" d="M0,51.32c47.49.53,95,.08,142.45.08,62.28,0,120.56,5.49,181.69,18.44,70.55,14.94,141.26,35.52,213.33,41.7,54.38,4.67,107.15-10.53,158.86-25.66,81.86-23.95,164.81-52.66,242.29-3.6,28.13,17.8,55.43,31.15,89.53,32.48,57.62,2.26,116.91-3.68,174.61-4.85,65.18-1.31,135.93,3.54,200.09-8.93,67.24-13.06,127.34-49,197.15-49.66" transform="translate(0 -0.85)"/><path class="cls-1" d="M0,48.61c48.24.46,96.44-.52,144.67-.85,62.41-.42,120.81,5.16,182.06,18.05,70.43,14.82,141,35.25,213,41.36,53.7,4.56,105.74-10,156.87-24.75,82.35-23.8,162.87-49.45,241.87-4.2,29.11,16.67,57.44,29.36,91.7,30.58,57.44,2,116.22-3.14,173.76-3.85,64.94-.8,135.28,4.24,199.28-7.87,67.1-12.71,127.25-47.93,196.83-48.47" transform="translate(0 -0.85)"/><path class="cls-1" d="M0,46.12c49,.37,98-1.17,147-1.84A817.84,817.84,0,0,1,329.46,61.92c70.32,14.7,140.79,35,212.59,41,53,4.45,104.25-9.41,154.77-23.8,82.71-23.57,161.12-46.2,241.44-4.83,30.11,15.51,59.48,27.5,94,28.6,57.26,1.83,115.51-2.53,172.86-2.75,64.68-.24,134.6,5.07,198.41-6.72,67-12.36,127.18-46.9,196.53-47.3" transform="translate(0 -0.85)"/><path class="cls-1" d="M0,43.83C49.86,44.09,99.6,42,149.41,41c62.7-1.28,121.34,4.42,182.88,17.2C402.48,72.74,472.83,92.85,544.48,98.8,596.7,103.14,647.19,90,697.07,76c46.26-13,93.8-28.25,142.27-29.06,35.11-.59,67.19,9.07,98.71,23.58C969.18,84.83,999.6,96.06,1034.39,97c57,1.6,114.74-1.85,171.89-1.53,64.4.36,133.88,6,197.49-5.49C1470.61,78,1530.89,44.1,1600,43.83" transform="translate(0 -0.85)"/><path class="cls-1" d="M0,41.72c50.68.16,101.22-2.53,151.86-3.91,62.86-1.72,121.63,4,183.33,16.74C405.27,69,475.49,88.94,547,94.81,598.43,99,648.11,86.61,697.32,73c45.51-12.57,92-27,139.63-27.83,35.46-.61,68.4,8.39,100.89,21.67C970,80,1001.47,90.41,1036.62,91.26c56.82,1.37,114-1.12,170.88-.24,64.1,1,133.13,7,196.54-4.18,66.71-11.73,127.06-45,196-45.12" transform="translate(0 -0.85)"/><path class="cls-1" d="M0,39.8c51.55,0,102.9-3.23,154.4-5,63-2.15,121.91,3.61,183.78,16.28C408.13,65.4,478.22,85.18,549.58,91c50.65,4.1,99.44-7.63,148-20.74,44.75-12.08,90.19-25.73,136.91-26.55,35.86-.64,69.66,7.66,103.13,19.7,87.36,31.42,179.5,20.94,271.1,23.34,63.8,1.67,132.37,8,195.55-2.81,66.6-11.44,127-44,195.74-44.1" transform="translate(0 -0.85)"/><path class="cls-1" d="M0,38.06c52.43-.1,104.62-4,157-6.09,63.18-2.57,122.19,3.19,184.25,15.8C411.05,62,481,81.55,552.21,87.25c49.82,4,97.78-7,145.64-19.67C741.81,56,786.21,43.14,832,42.32c36.32-.66,71,6.89,105.4,17.69,88.51,27.78,180.74,19.13,272.57,22.56,63.47,2.37,131.57,9.17,194.53-1.39C1471,70,1531.48,38.05,1600,38.06" transform="translate(0 -0.85)"/><path class="cls-1" d="M0,36.48c53.33-.24,106.35-4.68,159.58-7.2,63.36-3,122.49,2.77,184.73,15.31,69.66,14,139.49,33.48,210.54,39.09,49,3.86,96.11-6.37,143.25-18.59,43.14-11.17,86.5-23.14,131.37-24,36.83-.67,72.34,6.09,107.7,15.67,89.52,24.24,182,17.28,274,21.79,63.16,3.09,130.77,10.36,193.5.06,66.38-10.89,126.94-42.25,195.3-42.18" transform="translate(0 -0.85)"/><path class="cls-1" d="M0,35.05c54.23-.37,108.09-5.4,162.2-8.3C225.75,23.34,285,29.08,347.43,41.57,417,55.48,486.65,74.74,557.54,80.25,605.68,84,652,74.51,698.39,62.76,740.7,52.05,783,40.92,827,40.12c37.39-.69,73.74,5.25,110,13.63,90.42,20.86,183.24,15.41,275.5,21,62.82,3.84,129.93,11.6,192.45,1.55,66.28-10.64,126.91-41.41,195.1-41.3" transform="translate(0 -0.85)"/><path class="cls-1" d="M0,33.78c55.14-.52,109.83-6.13,164.82-9.41,63.69-3.81,123.07,1.9,185.69,14.33C419.92,52.47,489.47,71.56,560.21,77c47.28,3.62,92.76-5.13,138.44-16.4C740.14,50.34,781.45,40,824.41,39.24c38-.69,75.16,4.41,112.34,11.6,91.26,17.65,184.43,13.54,277,20.35,62.49,4.6,129.1,12.85,191.4,3C1471.29,63.82,1532,33.64,1600,33.78" transform="translate(0 -0.85)"/><path class="cls-1" d="M0,32.65c56-.66,111.56-6.86,167.42-10.52C231.3,17.94,290.8,23.61,353.61,36c69.25,13.64,138.67,32.57,209.26,37.89,46.42,3.51,91.1-4.52,136-15.32,40.65-9.76,81-19.27,123-20,38.61-.69,76.59,3.54,114.64,9.57,92.08,14.61,185.54,11.65,278.39,19.68,62.16,5.37,128.24,14.13,190.35,4.55,66.09-10.2,126.88-39.82,194.75-39.66" transform="translate(0 -0.85)"/><path class="cls-1" d="M0,31.66C56.94,30.84,113.29,24.08,170,20c64-4.56,123.63,1.06,186.64,13.37,69.12,13.5,138.41,32.26,208.84,37.49C611.06,74.29,655,67,699.18,56.65c39.82-9.29,79.16-18,120.23-18.74,39.23-.69,78,2.62,116.9,7.57,92.88,11.82,186.55,9.75,279.8,19,61.84,6.15,127.39,15.42,189.31,6,66-10,126.87-39.06,194.6-38.9" transform="translate(0 -0.85)"/><path class="cls-1" d="M0,30.78c57.8-1,115-8.28,172.52-12.69,64.18-4.91,123.9.66,187.09,12.91,69,13.36,138.15,32,208.43,37.1,44.73,3.28,87.89-3.38,131.38-13.2C779.13,36.89,854.91,35.14,936.1,43c93.73,9.11,187.42,7.84,281.17,18.41,61.53,6.94,126.54,16.71,188.29,7.52,65.93-9.81,126.87-38.33,194.46-38.19" transform="translate(0 -0.85)"/><path class="cls-1" d="M0,30c58.65-1.09,116.59-9,175-13.74,64.34-5.25,124.16.27,187.53,12.45C431.4,42,500.42,60.4,570.56,65.47c43.91,3.18,86.35-2.85,129.14-12.19C778.83,36,855.28,35.15,935.89,40.75c40.58,2.82,80.92,4.65,121.6,4.42,54-.31,107.43,6.67,160.91,13.41,61.23,7.72,125.69,18,187.28,9C1471.55,57.91,1532.56,29.91,1600,30" transform="translate(0 -0.85)"/><path class="cls-1" d="M0,29.38C59.5,28.17,118.2,19.74,177.39,14.63c64.49-5.57,124.41-.11,188,12C434.08,39.76,503,58,573,63c43.11,3.07,84.87-2.35,127-11.2,78.63-16.54,155.69-16.69,235.74-13.19,41.36,1.81,82.55,2.68,124,2.36,53.67-.42,106.82,7.54,159.85,14.93,60.93,8.49,124.84,19.23,186.31,10.37,65.79-9.48,126.89-37,194.22-36.9" transform="translate(0 -0.85)"/><path class="cls-1" d="M0,28.83C60.3,27.5,119.74,18.55,179.69,13.1,244.31,7.23,304.33,12.65,368,24.71c68.62,13,137.4,31.09,207.26,36,42.33,3,83.46-1.88,124.89-10.26C778.38,34.65,856,35.05,935.49,36.66c42.11.85,84.1.78,126.21.38,53.35-.51,106.24,8.37,158.82,16.39,60.67,9.26,124,20.44,185.38,11.72,65.73-9.34,126.9-36.33,194.12-36.32" transform="translate(0 -0.85)"/><path class="cls-1" d="M0,28.37C61.07,26.94,121.2,17.48,181.89,11.71c64.74-6.15,124.86-.78,188.71,11.22,111.18,20.9,216.94,48.19,329.82,26.32C778.24,34.17,856.25,35,935.3,34.85c42.81-.05,85.57-1,128.37-1.5,53-.57,105.69,9.17,157.83,17.81,60.41,10,123.21,21.59,184.5,13,65.66-9.22,126.91-35.73,194-35.79" transform="translate(0 -0.85)"/><path class="cls-1" d="M0,28C61.79,26.48,122.59,16.52,184,10.46,248.82,4,309,9.38,373,21.32,483.22,41.89,588.66,68.9,700.64,48.16,778.17,33.8,856.48,34.87,935.12,33.22c43.46-.92,86.94-2.76,130.4-3.28,52.76-.63,105.17,9.92,156.89,19.15,60.19,10.73,122.44,22.69,183.67,14.2C1471.69,54.19,1533,28.14,1600,28" transform="translate(0 -0.85)"/><path class="cls-1" d="M0,27.7c62.45-1.59,123.86-12,185.89-18.37C250.85,2.68,311.15,8,375.26,19.87c109.36,20.27,214.39,46.9,325.59,27.32C778.18,33.58,856.64,34.8,935,31.75c44-1.72,88.2-4.38,132.28-4.93,52.52-.66,104.68,10.62,156,20.4,60,11.43,121.7,23.72,182.9,15.32,65.55-9,126.95-34.6,193.86-34.84" transform="translate(0 -0.85)"/><path class="cls-1" d="M0,27.47C63.1,25.83,125.08,15,187.7,8.34c65-6.87,125.4-1.57,189.61,10.26C485.9,38.59,590.55,64.85,701,46.35c77.19-12.92,155.71-11.6,233.76-15.91,44.58-2.46,89.36-5.87,134-6.44,52.3-.68,104.23,11.25,155.21,21.56,59.81,12.1,121,24.67,182.19,16.34,65.5-8.92,127-34.07,193.8-34.43" transform="translate(0 -0.85)"/><path class="cls-1" d="M0,27.29c63.65-1.66,126.15-13,189.31-19.82,65.08-7.06,125.54-1.75,189.82,10,108,19.76,212.19,45.62,322.08,28.15,77.1-12.26,155.59-10.89,233.42-16.32,45.07-3.14,90.4-7.23,135.59-7.82,52.12-.66,103.81,11.82,154.47,22.63,59.66,12.72,120.37,25.51,181.57,17.24,65.45-8.85,127-33.58,193.74-34.07" transform="translate(0 -0.85)"/><path class="cls-1" d="M0,27.17C64.18,25.5,127.14,13.79,190.78,6.73c65.12-7.23,125.65-1.9,190,9.81C488.18,36.09,592,61.51,701.39,45,778.46,33.4,856.85,34.77,934.52,28.36c45.49-3.76,91.3-8.47,137-9,52-.65,103.43,12.29,153.82,23.56,59.55,13.31,119.79,26.25,181,18,65.41-8.79,127-33.12,193.69-33.74" transform="translate(0 -0.85)"/><path class="cls-1" d="M0,27.09c64.6-1.64,128-13.73,192-21,65.14-7.37,125.73-2,190.11,9.66,107,19.38,210.41,44.33,319.39,28.75,77.07-11,155.31-9.66,232.87-17,45.85-4.31,92.06-9.53,138.15-10.06,51.89-.6,103.07,12.68,153.25,24.37,59.47,13.85,119.28,26.88,180.57,18.67,65.36-8.76,127.07-32.68,193.64-33.46" transform="translate(0 -0.85)"/><path class="cls-1" d="M0,27C65,25.46,128.68,13,193.09,5.61c65.13-7.48,125.79-2,190.17,9.56C490,34.41,593,58.88,701.67,44.13,778.77,33.67,856.84,35,934.31,27c46.14-4.78,92.67-10.43,139.12-10.91,51.84-.53,102.76,13,152.78,25,59.42,14.33,118.84,27.37,180.2,19.17C1471.74,51.53,1533.52,28,1600,27" transform="translate(0 -0.85)"/><path class="cls-1" d="M0,27c65.27-1.48,129.22-14.25,193.9-21.78,65.09-7.57,125.82-2,190.16,9.52,106.52,19.14,209.18,43.11,317.7,29.1,77.14-10,155-8.64,232.44-17.31,46.38-5.2,93.13-11.17,139.86-11.56,51.85-.44,102.48,13.15,152.42,25.55,59.42,14.74,118.48,27.71,180,19.51,65.29-8.72,127.14-31.9,193.57-33" transform="translate(0 -0.85)"/><path class="cls-1" d="M0,27C65.5,25.65,129.64,12.59,194.51,5c65-7.63,125.81-2,190.1,9.54,106.47,19.06,208.8,42.56,317.26,29.16,77.19-9.54,154.92-8.19,232.29-17.38,46.54-5.53,93.4-11.71,140.35-12,51.91-.32,102.24,13.22,152.17,25.9,59.45,15.1,118.22,27.91,179.8,19.68C1471.73,51.15,1533.65,28.32,1600,27" transform="translate(0 -0.85)"/><path class="cls-1" d="M0,27C65.63,25.83,129.87,12.5,194.85,4.83s125.77-1.86,190,9.61c106.55,19,208.59,42.06,317.12,29.15,77.23-9.19,154.84-7.78,232.17-17.37,46.64-5.79,93.51-12,140.59-12.2,52-.17,102,13.15,152,26.06,59.53,15.38,118.06,28,179.77,19.68C1471.72,51,1533.71,28.53,1600,27" transform="translate(0 -0.85)"/></g></g></svg>