<svg xmlns="http://www.w3.org/2000/svg" viewBox="0 0 1600.05 308.66"><defs><style>.cls-1{fill:none;stroke:#5bc0be;stroke-miterlimit:10;}</style></defs><title>Ресурс 1</title><g id="Слой_2" data-name="Слой 2"><g id="Слой_2-2" data-name="Слой 2"><path class="cls-1" d="M0,308.5q607.83.48,1215.65,0,192.18,0,384.35,0" transform="translate(0 -0.5)"/><path class="cls-1" d="M0,293.77c114.66,1.4,229.18-5.83,343.87-2.14,99.57,3.2,198.79,4.93,298.41,2.27,191.37-5.12,382.76,2.3,574.19,0,127.85-1.51,255.68.1,383.53-.16" transform="translate(0 -0.5)"/><path class="cls-1" d="M0,279.52c115.27.65,228.69-16.56,344.1-6.29,100.07,8.91,196.84,13.66,297.25,6.56a2225,2225,0,0,1,279-1.87c99.57,5.42,198.47,5.3,298.12,2.22,127.24-3.94,254.31-.49,381.57-.62" transform="translate(0 -0.5)"/><path class="cls-1" d="M0,265.76c60.87-.67,120.64-11.07,181.08-17a629.34,629.34,0,0,1,163.29,5.41c49.71,8,99.13,18.9,149.56,21.32,48.93,2.36,97.73-3.31,146.2-9.33,45.59-5.66,91.2-11.67,137.21-12.05,47.77-.4,95.42,4.08,142.92,8.59,101,9.59,199.46,9.71,300.76,4.27,126.55-6.78,252.39-1.46,379-1.23" transform="translate(0 -0.5)"/><path class="cls-1" d="M0,252.48c61.63-1.81,121.2-16.5,182-25.25,56-8,107.73-4.87,162.67,8.19,49,11.64,97.39,27.13,147.81,31.39,49,4.14,98.32-5.17,146.4-13.77,45.46-8.14,91.24-17.28,137.57-18,48.06-.79,96.3,6.45,143.78,12.92,48.79,6.64,97.83,13.91,147.15,14.6,52.14.73,104.43-4.21,156.36-8.18,126-9.62,250.23-2.5,376.28-1.87" transform="translate(0 -0.5)"/><path class="cls-1" d="M0,239.66c62.42-2.59,121.69-21.17,182.75-32.38,56.84-10.43,107.06-6.37,162.15,10.54C393.21,232.64,440.63,252.3,491.2,258c49.11,5.53,99-6.81,146.59-17.64,45.28-10.3,91.2-22.13,137.89-23.16,48.32-1.07,97.1,8.45,144.51,16.62,48.88,8.42,98.22,17.8,148,18.75,52.63,1,105.6-5.47,157.9-10.5,61.51-5.9,122.53-10.3,184.36-8.65,63.23,1.68,126.35,5.79,189.61,6.24" transform="translate(0 -0.5)"/><path class="cls-1" d="M0,227.3c63.08-2.48,122-24.12,183.25-36.93,57.09-12,107.07-7.57,161.85,11.93,47.76,17,94.4,39.86,145.26,46,49.42,6,99.32-7.76,146.75-20.18,45.2-11.84,91-25.28,138.08-26.34,48.64-1.11,97.51,9.47,144.95,18.86,48.94,9.68,98.38,20.37,148.46,21.33,53,1,106.27-6.19,158.83-12,61.75-6.77,122.87-11.73,185-9.84,62.55,1.89,124.93,6.7,187.53,7.12" transform="translate(0 -0.5)"/><path class="cls-1" d="M0,215.38c63.23-2.33,122.18-24.46,183.52-37.46,57-12.08,107.16-7.79,161.78,12.08,47.61,17.31,94,40.67,144.9,46.75,49.51,5.91,99.38-7.88,146.85-20.49,45.21-12,91-25.57,138.12-26.66,48.7-1.13,97.51,9.5,145,19.1,48.93,9.9,98.36,20.78,148.49,21.64,53,.92,106.35-6.29,159-12.08,61.84-6.81,122.94-11.74,185.19-9.82,62.43,1.92,124.74,6.24,187.22,6.94" transform="translate(0 -0.5)"/><path class="cls-1" d="M0,203.91c63.2-2.88,122.73-23.63,184.28-36.12,57.16-11.61,106.76-7.42,161.69,11.75,47.55,16.59,93.94,38.63,144.4,44.9,49.24,6.12,99.49-7.71,146.93-19.56,45.24-11.3,91.24-24.36,138.16-25.62,48.47-1.31,97.44,9.4,144.74,18.63,48.81,9.53,98.25,20.2,148.18,21.08,52.94.95,106.36-6.12,158.93-11.41,61.84-6.22,122.93-10.86,185.11-9.18,62.53,1.69,125,4.32,187.58,5.53" transform="translate(0 -0.5)"/><path class="cls-1" d="M0,192.88c63.31-3.13,123.6-22.24,185.53-33.95,57.07-10.79,106.53-6.94,161.61,11.13,47.4,15.54,93.72,36,143.64,42.1,49,6,99.45-7.23,147-18.08,45.34-10.35,91.48-22.51,138.22-23.81,48.23-1.35,97.13,9,144.3,17.78,48.67,9,98,19.23,147.66,20.12,52.84.94,106.27-5.62,158.82-10.23C1351.32,187,1475.17,190,1600,192.88" transform="translate(0 -0.5)"/><path class="cls-1" d="M0,182.27c63.56-3.12,124.74-20.36,187.19-31,56.79-9.72,106.45-6.37,161.54,10.24,47.17,14.22,93.38,32.75,142.66,38.49,48.89,5.7,99.31-6.48,147-16.13,45.5-9.19,91.72-20.09,138.31-21.33,48-1.28,96.62,8.45,143.66,16.61,48.5,8.42,97.58,17.94,146.95,18.79,52.77.91,106.11-4.82,158.68-8.61,124.28-9,249.39-9.86,374-7" transform="translate(0 -0.5)"/><path class="cls-1" d="M0,172.07c64-2.88,126.1-18.06,189.2-27.52,56.38-8.46,106.47-5.63,161.48,9.14,46.9,12.6,92.92,29.07,141.49,34.2,48.82,5.15,99.1-5.53,147.09-13.78,45.67-7.85,91.93-17.21,138.4-18.31,47.71-1.12,96,7.7,142.89,15.18,48.28,7.7,97,16.36,146.07,17.16,52.71.86,105.89-3.78,158.5-6.62,124.31-6.71,250.39-11.84,374.88-9.45" transform="translate(0 -0.5)"/><path class="cls-1" d="M0,162.28c64.46-2.47,127.64-15.43,191.49-23.51,55.8-7.06,106.66-4.89,161.42,7.86,46.54,10.84,92.38,25,140.17,29.35,48.82,4.44,98.85-4.41,147.13-11.1,45.86-6.35,92.13-13.95,138.52-14.83,47.42-.9,95.18,6.81,142,13.53,48,6.9,96.43,14.55,145.06,15.29,52.67.79,105.67-2.56,158.3-4.34,61.64-2.09,123.3-2.46,184.92-4.23,63.77-1.83,127.15-8.85,191-8" transform="translate(0 -0.5)"/><path class="cls-1" d="M0,152.89C65.1,151,129.34,140.33,194,133.76c55.18-5.61,106.92-4.09,161.38,6.46,46.12,8.93,91.73,20.63,138.74,24.08,48.85,3.59,98.58-3.18,147.15-8.18,46-4.73,92.32-10.4,138.64-11,47.12-.63,94.34,5.82,141,11.71,47.76,6,95.73,12.59,143.95,13.24,52.63.71,105.44-1.19,158.07-1.83,61.53-.75,123.45.42,184.91-2.59,64.23-3.15,127.75-13,192.18-12.74" transform="translate(0 -0.5)"/><path class="cls-1" d="M0,143.9c120.11-2.35,238-27.7,358-9.54,45.67,6.91,91,16,137.23,18.53,48.92,2.63,98.36-1.89,147.17-5.09,94.14-6.18,184.79-7.33,278.71,2.8,100.38,10.83,199.77,10.84,300.62,11.9,61.4.64,123.59,3.46,184.89-.88,64.73-4.57,128.33-17.41,193.41-17.72" transform="translate(0 -0.5)"/><path class="cls-1" d="M0,135.28c120.51-1.06,240.25-19.2,360.65-6.31,45.2,4.84,90.19,11.32,135.68,12.82,49,1.62,98.21-.57,147.19-1.91,93.13-2.56,184.87-3.24,277.75,5,99.68,8.83,199.24,9,299.19,12.4,61.27,2.07,123.72,6.56,184.88.89,65.25-6.05,128.87-21.88,194.66-22.87" transform="translate(0 -0.5)"/><path class="cls-1" d="M0,127c121.16.24,242.22-10.51,363.34-3.08,93.89,5.77,187.27,7.38,281.34,8.38,92.38,1,184.58.83,276.79,7.17,99.18,6.82,198.5,7.21,297.76,12.9,61.14,3.5,123.82,9.66,184.88,2.66,65.79-7.54,129.35-26.35,195.89-28" transform="translate(0 -0.5)"/><path class="cls-1" d="M0,119.17c215.24,2.57,430.72-4.33,645.81,6,190.62,9.13,382,7.39,572.23,22.71,61,4.91,123.89,12.69,184.89,4.4,66.31-9,129.76-30.73,197.07-33.08" transform="translate(0 -0.5)"/><path class="cls-1" d="M0,111.66c122.87,2.54,245.63,6.78,368.48,3.12,93.51-2.79,185-4.32,278.4,3.49C836.68,134.16,1027.46,124,1217,143.48c60.92,6.26,123.93,15.57,184.91,6.07,66.8-10.41,130.08-34.94,198.15-37.89" transform="translate(0 -0.5)"/><path class="cls-1" d="M0,104.49c123.7,3.41,247.16,15,370.78,5.93,43.25-3.16,86.46-6.9,129.79-8.86,49.21-2.22,98.49,4.4,147.29,10.13,46.28,5.42,92.81,11.84,139.44,13,44.84,1.07,89.84-.2,134.71.27,45.67.48,91.31.22,137,.34,52.53.13,104.92,7.52,157,14,60.82,7.53,124,18.22,184.94,7.62,67.26-11.68,130.3-38.9,199.11-42.34" transform="translate(0 -0.5)"/><path class="cls-1" d="M0,97.67c124.42,4,248.6,22.51,372.82,8.44,42.83-4.85,85.51-10.8,128.57-13.33,49.28-2.88,98.7,5.4,147.33,12.58,46.2,6.83,92.78,14.85,139.55,16.13,44.51,1.21,89.35-.92,133.88-1.23,45.35-.32,90.73-1.44,136.07-1.37,52.57.07,105,8.62,156.9,16,60.72,8.68,124,20.59,185,9,67.67-12.81,130.41-42.52,199.91-46.3" transform="translate(0 -0.5)"/><path class="cls-1" d="M0,91.18c125,4.16,249.89,29.14,374.52,10.59C417,95.45,459.17,87.51,502.07,84.61c49.41-3.33,98.89,6.2,147.39,14.66,46.12,8.06,92.7,17.42,139.63,18.77,44.25,1.29,89-1.48,133.21-2.48,45.07-1,90.22-2.82,135.3-2.79,52.66,0,105.06,9.5,156.9,17.79,60.62,9.68,124,22.57,185,10.26,68-13.72,130.4-45.74,200.5-49.64" transform="translate(0 -0.5)"/><path class="cls-1" d="M0,85C125.37,88.9,251,119.59,375.84,97.3c42.18-7.52,83.85-17.17,126.7-20.2,49.59-3.51,99,6.75,147.45,16.28,46.07,9.07,92.59,19.44,139.7,20.79,44.09,1.26,88.65-1.85,132.71-3.43,44.85-1.61,89.82-3.89,134.71-3.87,52.81,0,105.15,10.1,157,19.11,60.49,10.52,124,24.13,185.06,11.26C1467.4,122.85,1529.41,88.79,1600,85" transform="translate(0 -0.5)"/><path class="cls-1" d="M0,79.16c125.56,3.07,251.68,38.56,376.65,13.47,42-8.43,83.23-19.44,126.12-22.34,49.82-3.36,99.05,7,147.52,17.38,46,9.88,92.46,20.83,139.74,22.06,44,1.14,88.45-2,132.42-4,44.72-2.06,89.55-4.59,134.34-4.55,53,0,105.21,10.37,157.14,20,60.37,11.14,124.06,25.17,185.12,12,68.39-14.75,130-50.6,201-53.94" transform="translate(0 -0.5)"/><path class="cls-1" d="M0,73.62c125.62,1.91,251.9,40.52,376.88,14,41.91-8.9,83-20.75,125.94-23.31,50.05-3,99,6.93,147.56,17.82,46.07,10.33,92.32,21.44,139.74,22.47,44.07,1,88.37-1.92,132.35-4.19,44.7-2.31,89.46-4.84,134.23-4.77,53.23.09,105.29,10.2,157.4,20C1274.4,127,1338.29,141,1399.33,127.86c68.37-14.71,129.6-51.54,200.69-54.24" transform="translate(0 -0.5)"/><path class="cls-1" d="M0,68.38c125.66,1.75,251.68,40.53,376.72,14.05C418.83,73.52,460.09,61.59,503.26,59c50-3,98.82,7,147.32,17.82,46,10.26,92.19,21.38,139.56,22.42,44.06,1,88.39-2,132.39-4.15,44.7-2.22,89.48-4.7,134.25-4.7,53.24,0,105.46,9.61,157.69,18.9,60.37,10.74,124.34,24.18,185.37,11.47C1468,106.61,1529.33,70.92,1600,68.38" transform="translate(0 -0.5)"/><path class="cls-1" d="M0,63.43C125.76,65.05,251.5,104,376.65,77.58,419,68.64,460.56,56.64,504,54.08c49.82-2.93,98.61,7,147,17.77,45.9,10.21,92,21.28,139.2,22.31,44.08,1,88.44-2,132.45-4,44.73-2.12,89.53-4.5,134.32-4.57,53.22-.09,105.56,9,157.89,17.75,60.45,10.11,124.47,22.94,185.47,10.67,67.92-13.64,129.41-48.18,199.73-50.54" transform="translate(0 -0.5)"/><path class="cls-1" d="M0,58.76C125.87,60.29,251.3,99.42,376.6,73.06,419.3,64.08,461.24,52,505,49.41c49.64-2.91,98.31,7,146.51,17.67,45.73,10.16,91.63,21.14,138.68,22.17,44.1,1,88.5-1.93,132.54-3.89,44.76-2,89.58-4.25,134.4-4.38,53.2-.16,105.61,8.34,158,16.55,60.52,9.47,124.54,21.65,185.52,9.86,67.71-13.1,129.37-46.46,199.33-48.63" transform="translate(0 -0.5)"/><path class="cls-1" d="M0,54.37c126,1.47,251.1,40.77,376.59,14.49,43.12-9,85.52-21.24,129.72-23.83,49.44-2.9,97.94,6.89,146,17.53,45.51,10.09,91.19,21,138,22,44.12,1,88.56-1.87,132.64-3.69,44.8-1.84,89.66-3.95,134.51-4.14,53.15-.22,105.62,7.68,158.09,15.31,60.57,8.82,124.56,20.32,185.5,9,67.53-12.53,129.37-44.7,199-46.66" transform="translate(0 -0.5)"/><path class="cls-1" d="M0,50.24C126.2,51.68,250.94,91.16,376.66,65c43.61-9.09,86.55-21.42,131.24-24,49.2-2.89,97.5,6.79,145.29,17.35C698.44,68.27,743.84,79,790.39,80c44.17,1,88.64-1.78,132.76-3.43C968,74.9,1012.9,73,1057.8,72.74c53.08-.27,105.57,7,158.08,14,60.62,8.14,124.55,18.93,185.45,8.12C1468.69,83,1530.72,52,1600,50.24" transform="translate(0 -0.5)"/><path class="cls-1" d="M0,46.38c126.38,1.43,250.75,41.09,376.73,15,44.18-9.16,87.71-21.61,133-24.28,48.94-2.87,97,6.66,144.55,17.14,44.94,9.9,90,20.47,136.26,21.48,44.21,1,88.72-1.66,132.9-3.14,98.9-3.31,194.4-2.87,292.81,9.23,60.66,7.46,124.49,17.52,185.34,7.23C1468.78,77.64,1531,47.88,1600,46.38" transform="translate(0 -0.5)"/><path class="cls-1" d="M0,42.76C126.63,44.2,250.61,84.06,376.89,58c44.79-9.23,89-21.82,134.86-24.53,48.65-2.88,96.44,6.5,143.72,16.88,44.6,9.79,89.33,20.18,135.2,21.18,44.26,1,88.81-1.51,133.05-2.8,98.67-2.88,194.59-2.67,292.86,8.28,60.68,6.76,124.39,16.07,185.19,6.3C1468.85,72.57,1531.3,44,1600,42.76" transform="translate(0 -0.5)"/><path class="cls-1" d="M0,39.38c126.87,1.49,250.43,41.55,377,15.59C422.53,45.64,467.43,32.91,514,30.15c48.35-2.88,95.83,6.32,142.82,16.6,44.24,9.67,88.56,19.86,134,20.84,44.32,1,88.92-1.34,133.23-2.42,98.44-2.42,194.74-2.44,292.86,7.35,60.7,6,124.26,14.59,185,5.36,67-10.17,129.63-37.47,198.09-38.5" transform="translate(0 -0.5)"/><path class="cls-1" d="M0,36.24C127.17,37.79,250.3,78.05,377.26,52.17c46.2-9.42,91.87-22.3,139.15-25.13,48-2.87,95.16,6.12,141.85,16.29C702.09,52.88,746,62.85,791,63.81c44.38,1,89-1.14,133.4-2,98.23-1.93,194.87-2.17,292.85,6.44,60.69,5.34,124.09,13.1,184.78,4.41,66.84-9.56,129.76-35.63,198-36.41" transform="translate(0 -0.5)"/><path class="cls-1" d="M0,33.32C127.47,35,250.16,75.42,377.49,49.62c47-9.51,93.45-22.55,141.51-25.45,47.66-2.87,94.46,5.9,140.82,15.95,43.4,9.41,86.81,19.14,131.4,20.09s89.14-.92,133.59-1.57c98-1.42,195-1.88,292.8,5.55,60.69,4.61,123.88,11.59,184.52,3.45,66.75-9,129.9-33.78,197.89-34.32" transform="translate(0 -0.5)"/><path class="cls-1" d="M0,30.62c127.72,1.72,250.05,42.57,377.73,16.69,47.77-9.68,95.13-22.82,144-25.79,47.3-2.88,93.72,5.65,139.74,15.59,42.94,9.27,85.86,18.75,130,19.68,44.53.94,89.26-.69,133.79-1.1,97.85-.9,195-1.56,292.71,4.68,60.68,3.87,123.66,10.07,184.23,2.47,66.68-8.36,130.07-31.93,197.85-32.22" transform="translate(0 -0.5)"/><path class="cls-1" d="M0,28.12c70.74,1,140.29,15.25,210.39,23.28C267.57,58,321.63,56.58,378,45.23c48.63-9.79,96.86-23.09,146.57-26.15,46.91-2.88,92.94,5.4,138.61,15.21,42.46,9.12,84.85,18.34,128.46,19.25,44.6.93,89.38-.45,134-.61,97.7-.36,195-1.22,292.6,3.83,60.65,3.13,123.4,8.55,183.91,1.5,66.61-7.76,130.24-30.08,197.84-30.14" transform="translate(0 -0.5)"/><path class="cls-1" d="M0,25.83c70.51,1.08,139.77,15.56,209.61,23.76,57.56,6.76,111.89,5.13,168.71-6.23C427.85,33.46,477,20,527.58,16.84,574.1,14,619.71,22,665,31.65c42,9,83.8,17.91,126.88,18.8,44.69.93,89.52-.18,134.23-.09,97.56.18,195-.85,292.47,3,60.61,2.4,123.11,7,183.56.52,66.56-7.16,130.43-28.23,197.86-28.05" transform="translate(0 -0.5)"/><path class="cls-1" d="M0,23.72C70.29,24.87,139.25,39.61,208.82,48c58,7,112.6,5.09,169.83-6.28,50.42-10,100.5-23.67,152-26.9,46.11-2.89,91.3,4.86,136.23,14.4,41.45,8.8,82.73,17.47,125.27,18.34,44.78.91,89.66.08,134.45.43,97.46.74,194.88-.45,292.32,2.2,60.57,1.65,122.8,5.51,183.2-.46,66.51-6.57,130.62-26.4,197.9-26" transform="translate(0 -0.5)"/><path class="cls-1" d="M0,21.8C70.05,23,138.7,38,208,46.57c58.4,7.2,113.31,5,171-6.34,51.35-10.15,102.38-24,154.81-27.28,45.69-2.9,90.46,4.57,135,14,40.93,8.63,81.63,17,123.62,17.86,44.86.91,89.8.37,134.67,1,97.4,1.31,194.76,0,292.15,1.43,60.53.9,122.47,4,182.82-1.44,66.47-6,130.82-24.58,198-23.95" transform="translate(0 -0.5)"/><path class="cls-1" d="M0,20.06C69.8,21.35,138.14,36.62,207.16,45.34c58.83,7.43,114.06,5,172.17-6.4C431.62,28.67,483.61,14.68,537,11.26c45.27-2.9,89.6,4.29,133.75,13.54,40.39,8.47,80.51,16.56,121.93,17.39,45,.89,89.94.65,134.91,1.52,97.35,1.88,194.59.43,291.95.68,60.48.16,122.13,2.52,182.42-2.4,66.46-5.42,131-22.78,198.07-21.93" transform="translate(0 -0.5)"/><path class="cls-1" d="M0,18.48c69.53,1.37,137.56,16.9,206.29,25.8,59.27,7.67,114.81,5,173.36-6.46C432.92,27.43,485.89,13.27,540.22,9.75c44.84-2.9,88.73,4,132.49,13.1,39.84,8.3,79.38,16.1,120.22,16.9,45.05.88,90.1,1,135.15,2.08,97.35,2.46,194.39.9,291.75,0,60.41-.58,121.76,1.05,182-3.36,66.44-4.86,131.25-21,198.18-19.95" transform="translate(0 -0.5)"/><path class="cls-1" d="M0,17.06C69.3,18.51,137,34.3,205.46,43.38,265.16,51.3,321,48.32,380,36.87,434.21,26.35,488.19,11.93,543.47,8.4c44.43-2.85,87.84,3.69,131.22,12.66C759.26,38.53,842.6,37.44,928.58,40.11c97.38,3,194.16,1.39,291.54-.74,60.35-1.32,121.38-.39,181.59-4.3,66.43-4.32,131.46-19.24,198.31-18" transform="translate(0 -0.5)"/><path class="cls-1" d="M0,15.78c69,1.54,136.42,17.6,204.59,26.85,60.12,8.17,116.33,4.9,175.76-6.57C435.52,25.41,490.48,10.83,546.72,7.19c44-2.84,87,3.41,129.94,12.22,84,17.22,167.09,16,252.42,19.13,97.44,3.59,193.89,1.9,291.31-1.41,60.29-2.05,121-1.8,181.17-5.23C1468,28.11,1533.24,14.39,1600,15.78" transform="translate(0 -0.5)"/><path class="cls-1" d="M0,14.65C68.8,16.26,135.88,32.59,203.77,42c60.53,8.42,117.08,4.87,177-6.63,56.1-10.77,112-25.52,169.22-29.26,43.57-2.85,86.11,3.12,128.69,11.78,83.36,17,166.26,15.58,251,19.2,97.52,4.16,193.59,2.43,291.08-2,60.21-2.77,120.6-3.17,180.74-6.14,66.45-3.28,131.89-15.82,198.62-14.27" transform="translate(0 -0.5)"/><path class="cls-1" d="M0,13.66c68.54,1.68,135.3,18.27,202.91,27.88,60.95,8.66,117.84,4.83,178.13-6.69C438.11,24,495,9,553.13,5.2,596.27,2.35,638.39,8,680.57,16.55,763.35,33.25,846,31.74,930.07,35.81c97.63,4.73,193.28,3,290.84-2.65,60.15-3.48,120.21-4.51,180.33-7C1467.7,23.34,1533.33,12,1600,13.66" transform="translate(0 -0.5)"/><path class="cls-1" d="M0,12.79c68.3,1.75,134.75,18.6,202.09,28.38,61.35,8.92,118.58,4.8,179.28-6.74,58-11,115.81-26.11,174.88-30C599,1.54,640.68,7,682.47,15.32,764.7,31.76,847.09,30.14,930.55,34.65c97.77,5.28,193,3.55,290.61-3.23,60.06-4.17,119.8-5.79,179.9-7.89,66.49-2.32,132.3-12.54,199-10.74" transform="translate(0 -0.5)"/><path class="cls-1" d="M0,12C68.09,13.85,134.23,31,201.31,40.91,263,50.07,320.6,45.67,381.7,34.11,440.59,23,499.34,7.72,559.32,3.69c42.3-2.84,83.6,2.31,125,10.52C766,30.4,848.14,28.68,931,33.61c46.24,2.75,92.72,6.26,139.07,6,50.42-.27,101.08-5.74,151.3-9.8,60-4.85,119.4-7,179.49-8.71,66.52-1.88,132.49-11,199.14-9.09" transform="translate(0 -0.5)"/><path class="cls-1" d="M0,11.38c67.85,1.88,133.69,19.24,200.51,29.36,62.09,9.4,120,4.73,181.47-6.85C441.77,22.63,501.42,7.22,562.28,3.1,604.17.27,645.09,5.16,686.13,13.22c81.16,16,163,14.14,245.35,19.47,46.31,3,92.88,6.8,139.32,6.58C1121.07,39,1171.6,33,1221.61,28.4c59.91-5.51,119-8.21,179.09-9.52,66.55-1.45,132.67-9.46,199.32-7.5" transform="translate(0 -0.5)"/><path class="cls-1" d="M0,10.83c67.64,1.93,133.19,19.54,199.77,29.82,62.43,9.64,120.65,4.7,182.49-6.9C442.9,22.37,503.42,6.81,565.13,2.61c41.49-2.83,82,1.83,122.72,9.74,80.68,15.7,162.27,13.81,244.06,19.52,46.38,3.24,93.05,7.32,139.57,7.14,50.13-.2,100.52-6.78,150.33-11.9,59.83-6.15,118.63-9.33,178.7-10.28,66.59-1.06,132.86-8,199.51-6" transform="translate(0 -0.5)"/><path class="cls-1" d="M0,10.38c67.43,2,132.71,19.82,199,30.25,62.76,9.87,121.29,4.67,183.47-7C444,22.2,505.32,6.49,567.84,2.2,609-.62,649.16,3.83,689.49,11.59,769.72,27,851,25.09,932.33,31.17c46.43,3.47,93.19,7.8,139.79,7.65,50-.16,100.27-7.24,149.88-12.86a1731.93,1731.93,0,0,1,178.33-11c66.63-.69,133-6.58,199.69-4.57" transform="translate(0 -0.5)"/><path class="cls-1" d="M0,10C67.27,12,132.28,30.1,198.4,40.68c63,10.08,121.88,4.63,184.36-7C445,22.09,507.1,6.24,570.4,1.87,611.17-.94,651,3.31,691,10.93c79.82,15.19,160.84,13.21,241.69,19.63,46.49,3.69,93.33,8.26,140,8.14,49.9-.13,100-7.65,149.44-13.75a1505.46,1505.46,0,0,1,178-11.7C1466.83,12.89,1533.33,8,1600,10" transform="translate(0 -0.5)"/><path class="cls-1" d="M0,9.7c67.07,2,131.83,20.35,197.75,31.07C261.09,51.06,320.2,45.37,383,33.72,487.47,14.32,586.39-9.64,692.47,10.36,771.9,25.34,852.66,23.3,933.08,30c46.55,3.9,93.45,8.68,140.22,8.6,49.81-.09,99.77-8,149-14.58,59.6-7.93,117.57-12.29,177.66-12.34,66.71-.05,133.32-4,200-2" transform="translate(0 -0.5)"/><path class="cls-1" d="M0,9.47c66.92,2,131.44,20.58,197.16,31.42,63.56,10.48,122.93,4.57,186-7.09C487.83,14.42,587.46-10,693.78,9.89,772.87,24.66,853.37,22.56,933.41,29.6c46.6,4.1,93.57,9.07,140.41,9,49.73,0,99.54-8.34,148.65-15.32C1346.8,5.62,1474.56,6,1600,9.47" transform="translate(0 -0.5)"/><path class="cls-1" d="M0,9.3C66.79,11.35,131.1,30.09,196.65,41,260.42,51.7,320,45.58,383.25,33.91,488.16,14.55,588.42-10.23,695,9.49,773.75,24.08,854,21.93,933.7,29.25c46.66,4.28,93.67,9.41,140.58,9.39,49.68,0,99.34-8.61,148.32-16C1347.05,3.89,1474.35,6,1600,9.3" transform="translate(0 -0.5)"/><path class="cls-1" d="M0,9.17c66.65,2,130.76,21,196.16,32C260.12,52,319.93,45.72,383.34,34,488.43,14.69,589.24-10.42,696,9.18,774.52,23.59,854.57,21.39,934,29c46.71,4.45,93.75,9.71,140.73,9.73,49.64,0,99.14-8.82,148-16.58C1347.29,2.33,1474.15,6.18,1600,9.17" transform="translate(0 -0.5)"/><path class="cls-1" d="M0,9.09c66.55,2,130.49,21.14,195.75,32.29,64.08,10.94,124.06,4.47,187.61-7.2C488.65,14.84,589.93-10.54,696.9,8.94c78.29,14.25,158.14,12,237.28,19.8,46.75,4.61,93.82,10,140.85,10,49.63.06,99-9,147.76-17.08C1347.52,1,1474,6.46,1600,9.09" transform="translate(0 -0.5)"/><path class="cls-1" d="M0,9c66.47,2,130.25,21.27,195.41,32.5,64.18,11.05,124.29,4.44,188-7.23C488.81,15,590.46-10.6,697.62,8.76c78.11,14.12,157.8,11.82,236.73,19.82,46.79,4.74,93.87,10.16,141,10.25,49.64.1,98.82-9.06,147.55-17.48C1347.73-.22,1473.76,6.85,1600,9" transform="translate(0 -0.5)"/><path class="cls-1" d="M0,9c66.41,1.92,130.07,21.38,195.14,32.67,64.23,11.14,124.45,4.41,188.17-7.26,105.58-19.33,207.5-45,314.83-25.77,78,14,157.54,11.64,236.32,19.82,46.83,4.86,93.9,10.3,141,10.43,49.67.13,98.68-9.08,147.39-17.79C1347.92-1.22,1473.59,7.35,1600,9" transform="translate(0 -0.5)"/><path class="cls-1" d="M0,9C66.4,10.85,130,30.45,195,41.79,259.21,53,319.49,46.17,383.22,34.51,488.94,15.18,591-10.59,698.51,8.58c77.91,13.91,157.37,11.5,236,19.82,46.85,5,93.91,10.39,141.09,10.55,49.73.18,98.57-9,147.29-18C1348.08-2,1473.44,8,1600,9" transform="translate(0 -0.5)"/><path class="cls-1" d="M0,9c66.37,1.75,129.85,21.49,194.84,32.85,64.21,11.23,124.5,4.35,188.2-7.29,105.84-19.33,208-45.1,315.59-26C776.54,22.41,856,19.93,934.58,28.38c46.89,5,93.91,10.4,141.12,10.6,49.81.21,98.49-8.91,147.24-18.08C1348.21-2.66,1473.32,8.65,1600,9" transform="translate(0 -0.5)"/></g></g></svg>