<svg xmlns="http://www.w3.org/2000/svg" viewBox="0 0 399.29 303.9"><defs><style>.cls-1{fill:#020000;stroke:#000;stroke-linejoin:round;stroke-width:3px;}</style></defs><title>LogoBlackNoMotto</title><g id="Слой_2" data-name="Слой 2"><g id="Logo_Light" data-name="Logo Light"><g id="Logo"><g id="LogoText"><path d="M15.46,253.14v49.42H5.37V253.14Zm-4,0h9.81a23.71,23.71,0,0,1,10,1.9,14.21,14.21,0,0,1,6.32,5.44,17.15,17.15,0,0,1,0,16.77,14.09,14.09,0,0,1-6.32,5.47,23.71,23.71,0,0,1-10,1.91H11.51v-8.55h9.81a10.06,10.06,0,0,0,6.36-1.83,7.39,7.39,0,0,0,0-10.77,10.18,10.18,0,0,0-6.36-1.8H11.51Z" transform="translate(-5.37)"/><path d="M45,267.5a24.93,24.93,0,0,1,5.51-8.15,24.6,24.6,0,0,1,8.3-5.33,29.63,29.63,0,0,1,20.72,0,25.05,25.05,0,0,1,8.29,5.33,24,24,0,0,1,5.51,8.15,27,27,0,0,1,1.94,10.35,27.22,27.22,0,0,1-1.94,10.34,25.13,25.13,0,0,1-5.44,8.3A24.58,24.58,0,0,1,79.67,302a29.28,29.28,0,0,1-21,0,25,25,0,0,1-8.3-5.47,24.52,24.52,0,0,1-5.44-8.3,27.6,27.6,0,0,1-1.9-10.34A26.59,26.59,0,0,1,45,267.5ZM55.7,286.25A14.94,14.94,0,0,0,61.14,292a16.34,16.34,0,0,0,16.1,0,14.77,14.77,0,0,0,5.4-5.79,19.29,19.29,0,0,0,0-16.8,14.46,14.46,0,0,0-5.36-5.79,16.48,16.48,0,0,0-16.17,0,14.94,14.94,0,0,0-5.44,5.79,18.89,18.89,0,0,0,0,16.8Z" transform="translate(-5.37)"/><path d="M111.48,253.14v40.59h19.7v8.83h-29.8V253.14Z" transform="translate(-5.37)"/><path d="M149.67,286.18l.22,2.26-6.5,14.12H132l25.07-52.32,25.06,52.32H170.71l-6.35-13.7.14-2.54-7.41-17.16Zm-4.3-2.82h23.72l1.2,8H144.17Z" transform="translate(-5.37)"/><path d="M195.85,253.14v49.42h-10.1V253.14Zm-4,0h10.45a22.88,22.88,0,0,1,10,2,14.73,14.73,0,0,1,6.28,5.51,16.62,16.62,0,0,1,0,16.49,14.66,14.66,0,0,1-6.28,5.54,22.73,22.73,0,0,1-10,2H191.89v-8.05h9.82a11.2,11.2,0,0,0,4.62-.88,6.73,6.73,0,0,0,3-2.55,8,8,0,0,0,0-8,6.77,6.77,0,0,0-3-2.54,11.2,11.2,0,0,0-4.62-.88h-9.82Zm15.75,26.4,16.09,23H211.8l-14.82-23Z" transform="translate(-5.37)"/><path d="M235.49,290.77a14.4,14.4,0,0,0,4.13,3.18,10.79,10.79,0,0,0,4.87,1.13,7.55,7.55,0,0,0,4.94-1.56,5.16,5.16,0,0,0,1.91-4.23,5.7,5.7,0,0,0-1.17-3.75,9.91,9.91,0,0,0-3.46-2.5q-2.29-1.1-5.61-2.37a43.65,43.65,0,0,1-4.06-1.73,20.15,20.15,0,0,1-4.34-2.82,14.33,14.33,0,0,1-3.39-4.24,12.67,12.67,0,0,1-1.34-6,12.44,12.44,0,0,1,2.15-7.31,14,14,0,0,1,5.86-4.73,20,20,0,0,1,8.3-1.66,19.2,19.2,0,0,1,8.15,1.59,18.35,18.35,0,0,1,5.72,4,20.69,20.69,0,0,1,3.57,5.05l-7.91,4.38a16,16,0,0,0-2.37-3.22,11,11,0,0,0-3.14-2.32,8.84,8.84,0,0,0-4-.89,6.33,6.33,0,0,0-4.45,1.38,4.25,4.25,0,0,0-1.48,3.21,4.71,4.71,0,0,0,1.2,3.21,11.92,11.92,0,0,0,3.67,2.62,50.28,50.28,0,0,0,6.21,2.5,28.83,28.83,0,0,1,4.63,2.12,19.12,19.12,0,0,1,4,3.07,13.19,13.19,0,0,1,2.83,4.24,14.4,14.4,0,0,1,1,5.61,14.24,14.24,0,0,1-1.41,6.43,13.82,13.82,0,0,1-3.89,4.76,18.15,18.15,0,0,1-5.54,3,20.37,20.37,0,0,1-6.46,1,20.68,20.68,0,0,1-8.43-1.73,21.61,21.61,0,0,1-6.82-4.69,23.64,23.64,0,0,1-4.52-6.43l7.2-5.08A26.52,26.52,0,0,0,235.49,290.77Z" transform="translate(-5.37)"/><path d="M263.48,253.14h36.71v9.11H286.85v40.31h-10.1V262.25H263.48Z" transform="translate(-5.37)"/><path d="M309.44,286.18l.22,2.26-6.5,14.12H291.79l25.07-52.32,25.06,52.32H330.48l-6.35-13.7.14-2.54-7.41-17.16Zm-4.3-2.82h23.72l1.2,8H303.94Z" transform="translate(-5.37)"/><path d="M355.62,253.14v49.42h-10.1V253.14Zm-4,0h10.45a22.88,22.88,0,0,1,10,2,14.73,14.73,0,0,1,6.28,5.51,16.62,16.62,0,0,1,0,16.49,14.66,14.66,0,0,1-6.28,5.54,22.73,22.73,0,0,1-10,2H351.66v-8.05h9.82a11.23,11.23,0,0,0,4.62-.88,6.78,6.78,0,0,0,3-2.55,8,8,0,0,0,0-8,6.83,6.83,0,0,0-3-2.54,11.23,11.23,0,0,0-4.62-.88h-9.82Zm15.75,26.4,16.09,23H371.57l-14.82-23Z" transform="translate(-5.37)"/><polygon class="cls-1" points="390.28 238.57 397.79 241.28 390.28 243.99 387.57 251.5 384.86 243.99 377.36 241.28 384.86 238.57 387.57 231.07 390.28 238.57"/></g><g id="LogoPicture"><path id="Body" d="M375.56,230h-55a4.51,4.51,0,0,1-3.88-2.22l-37.63-64.23c-3.72,2-10,5.1-21,10.54-12.26,6.09-24.47,12.1-24.47,12.1a4.43,4.43,0,0,1-2.82.38l-48.25-9.1-31.34,21.22L167.49,223a4.5,4.5,0,0,1-3.74,7h-55a4.48,4.48,0,0,1-3.72-2L67.89,173.22l-49-71.86A4.51,4.51,0,0,1,20,95.13L85.23,49.57a4.78,4.78,0,0,1,1.2-.59l67.3-21.64a4.33,4.33,0,0,1,1.38-.22h76.47l25.8-25.8A4.5,4.5,0,0,1,261.93.21l31.38,10h37.33a4.51,4.51,0,0,1,3.18,1.32l8.05,8h23.79a4.48,4.48,0,0,1,3.55,1.74,4.53,4.53,0,0,1,.82,3.86l-9.66,38.34a4.51,4.51,0,0,1-3.15,3.23L339,71.86,314.4,96.5l34.46,97.95,29.77,27.8a4.5,4.5,0,0,1-3.07,7.79Zm-52.42-9h41l-22.24-20.77a4.43,4.43,0,0,1-1.17-1.8L305,96.82A4.5,4.5,0,0,1,306,92.14L333.5,64.67a4.44,4.44,0,0,1,2-1.15l16.82-4.73,7.61-30.21H340a4.47,4.47,0,0,1-3.18-1.32l-8-8H292.61a4.49,4.49,0,0,1-1.36-.21L261.81,9.62,236.62,34.8a4.45,4.45,0,0,1-3.18,1.32H155.82l-66,21.22L28.82,100l46.51,68.21L111.14,221h44.18l-14.1-21a4.5,4.5,0,0,1,1.22-6.23L179,169a4.51,4.51,0,0,1,3.35-.69l48.6,9.17c17.35-8.54,44.07-21.8,47-23.55a4.54,4.54,0,0,1,2.46-.89,4.45,4.45,0,0,1,4.12,2.22Zm-46.52-65.35Zm0,0h0Zm0,0Zm0,0h0Zm0,0Zm0,0h0Z" transform="translate(-5.37)"/><path id="FrontLeg" d="M281.4,230h-55a4.51,4.51,0,0,1-4.47-5l5.21-43.35a4.53,4.53,0,0,1,2.49-3.5c17.26-8.49,45.29-22.4,48.39-24.21a4.5,4.5,0,0,1,6.81,5.45l-.11.23-17.15,37.46L285.13,223a4.5,4.5,0,0,1-3.73,7Zm-49.92-9h41.44L258.7,200a4.48,4.48,0,0,1-.37-4.39l12.84-28c-3.4,1.71-7.69,3.84-13.1,6.53-9.12,4.53-18.23,9-22.28,11Z" transform="translate(-5.37)"/><path id="BackLeg" d="M64.94,230h-55a4.51,4.51,0,0,1-4.48-4.95L18.12,98.37a4.5,4.5,0,0,1,8.2-2.08l53.13,78a4.49,4.49,0,0,1-1.15,6.22l-26.12,18.2L68.67,223a4.5,4.5,0,0,1-3.73,7Zm-50-9H56.46L42.24,200a4.5,4.5,0,0,1,1.15-6.21L69.5,175.63l-43.65-64Z" transform="translate(-5.37)"/><path id="Stars" d="M327.48,33.43a10.18,10.18,0,0,0-10.05,8.31L293.13,48A10.13,10.13,0,0,0,275.36,54L245.11,65a10.16,10.16,0,0,0-15.93,8.29,10.57,10.57,0,0,0,.3,2.47l-45.77,33.8a10.19,10.19,0,0,0-4-.83,10.59,10.59,0,0,0-1.5.12L150.65,68.55a10.16,10.16,0,1,0-19-5,10.59,10.59,0,0,0,.12,1.5L76.42,103a10,10,0,0,0-4.9-1.3A10.16,10.16,0,0,0,71.39,122a10.59,10.59,0,0,0,1.5-.11l27.61,40.26a10.16,10.16,0,1,0,19,5,9.42,9.42,0,0,0-.11-1.51l55.32-37.94a10,10,0,0,0,4.89,1.3,10.17,10.17,0,0,0,10.23-10.09,9.86,9.86,0,0,0-.31-2.51l45.73-33.78a10.16,10.16,0,0,0,14.23-9.24c0-.15,0-.29,0-.44l29.39-10.62a10,10,0,0,0,6.55,2.46,10.17,10.17,0,0,0,10-8.13l24.45-6.26a10.15,10.15,0,1,0,7.59-17Zm-218,123.5a9.3,9.3,0,0,0-1.5.11L80.32,116.78a10.25,10.25,0,0,0,1.3-4.89,10.59,10.59,0,0,0-.12-1.5l55.32-37.94a10.26,10.26,0,0,0,4.9,1.3,10.59,10.59,0,0,0,1.5-.12l27.61,40.26a10.14,10.14,0,0,0-1.3,4.9,10.59,10.59,0,0,0,.11,1.5l-55.32,37.94A10,10,0,0,0,109.43,156.93Z" transform="translate(-5.37)"/></g></g></g></g></svg>